<svg width="26" height="26" viewBox="0 0 26 26" fill="none" xmlns="http://www.w3.org/2000/svg">
<path d="M7.40801 6.40703C7.39725 6.07953 7.41509 5.843 7.48215 5.63272C7.64334 5.12737 7.99867 4.70675 8.46998 4.46339C8.82346 4.28086 9.28776 4.2418 10.2164 4.16366L16.9924 3.5935C18.1086 3.49959 18.6667 3.45263 19.1113 3.63398C19.5023 3.79349 19.8329 4.07272 20.0555 4.43165C20.3086 4.83969 20.3555 5.39777 20.4495 6.51393L21.4221 18.0731C21.516 19.1892 21.563 19.7473 21.3816 20.1919C21.2221 20.583 20.9429 20.9135 20.5839 21.1362C20.1759 21.3892 19.6178 21.4362 18.5017 21.5301L11.7256 22.1003C10.797 22.1784 10.3327 22.2175 9.95369 22.0966C9.44834 21.9354 9.02772 21.5801 8.78435 21.1088C8.68309 20.9127 8.62598 20.6824 8.58186 20.3577M4.75237 10.7859L5.23185 16.4842C5.27918 17.0467 5.30285 17.328 5.43834 17.4477C5.5559 17.5517 5.72304 17.598 5.88793 17.5724C6.07796 17.5428 6.28388 17.3252 6.69573 16.89L9.64595 13.7724C9.83631 13.5712 9.9315 13.4707 9.96114 13.3614C9.98721 13.2653 9.97876 13.1649 9.937 13.0745C9.88952 12.9717 9.77886 12.8885 9.55755 12.7219L6.12786 10.1412C5.64908 9.78089 5.40969 9.60075 5.21739 9.6034C5.05055 9.6057 4.8935 9.67931 4.79495 9.8014C4.68138 9.94211 4.70504 10.2234 4.75237 10.7859Z" stroke="black" stroke-width="2" stroke-linecap="round" stroke-linejoin="round"/>
</svg>
