<svg width="24" height="24" viewBox="0 0 24 24" fill="none" xmlns="http://www.w3.org/2000/svg">
<path d="M11.9997 12.5817V9.58173M11.9997 15.5817H12.0097M18.9997 20.5817L16.4094 18.0184M4.9997 20.5817L7.59001 18.0184M6.74234 3.99759C6.36727 3.62252 5.85856 3.41181 5.32812 3.41181C4.79769 3.41181 4.28898 3.62252 3.91391 3.99759C3.53884 4.37267 3.32813 4.88137 3.32812 5.41181C3.32812 5.94224 3.53884 6.45095 3.91391 6.82602M20.0858 6.82437C20.4609 6.4493 20.6716 5.94059 20.6716 5.41016C20.6716 4.87972 20.4609 4.37102 20.0858 3.99594C19.7107 3.62087 19.202 3.41016 18.6716 3.41016C18.1411 3.41016 17.6324 3.62087 17.2574 3.99594M18.9997 12.5817C18.9997 16.4477 15.8657 19.5817 11.9997 19.5817C8.1337 19.5817 4.9997 16.4477 4.9997 12.5817C4.9997 8.71574 8.1337 5.58173 11.9997 5.58173C15.8657 5.58173 18.9997 8.71574 18.9997 12.5817Z" stroke="black" stroke-width="2" stroke-linecap="round" stroke-linejoin="round"/>
</svg>
