<svg width="25" height="25" viewBox="0 0 25 25" fill="none" xmlns="http://www.w3.org/2000/svg">
<path d="M4.96396 7.96387H20.964M5.96396 4.96387H19.964M7.85992 20.9639H18.068C19.0911 20.9639 19.6026 20.9639 20.0083 20.7722C20.3656 20.6034 20.6649 20.3326 20.8684 19.9939C21.0994 19.6093 21.1503 19.1003 21.2521 18.0823L21.7001 13.6027C21.7915 12.6883 21.8372 12.2311 21.6872 11.8777C21.5554 11.5673 21.3229 11.3103 21.0271 11.1483C20.6904 10.9639 20.2309 10.9639 19.312 10.9639H6.61593C5.69699 10.9639 5.23752 10.9639 4.9008 11.1483C4.60503 11.3103 4.37249 11.5673 4.24071 11.8777C4.09068 12.2311 4.1364 12.6883 4.22784 13.6027L4.6758 18.0823C4.7776 19.1003 4.8285 19.6093 5.05955 19.9939C5.26306 20.3326 5.56234 20.6034 5.91963 20.7722C6.32529 20.9639 6.83683 20.9639 7.85992 20.9639ZM15.964 15.9639C15.964 17.0684 14.6208 17.9639 12.964 17.9639C11.3071 17.9639 9.96396 17.0684 9.96396 15.9639C9.96396 14.8593 11.3071 13.9639 12.964 13.9639C14.6208 13.9639 15.964 14.8593 15.964 15.9639Z" stroke="black" stroke-width="2" stroke-linecap="round" stroke-linejoin="round"/>
</svg>
