<svg width="25" height="25" viewBox="0 0 25 25" fill="none" xmlns="http://www.w3.org/2000/svg">
<path d="M12.9639 12.9639H12.9739M8.16387 20.9639H17.7639C18.884 20.9639 19.444 20.9639 19.8718 20.7459C20.2482 20.5541 20.5541 20.2482 20.7459 19.8718C20.9639 19.444 20.9639 18.884 20.9639 17.7639V8.16387C20.9639 7.04376 20.9639 6.48371 20.7459 6.05589C20.5541 5.67956 20.2482 5.3736 19.8718 5.18185C19.444 4.96387 18.884 4.96387 17.7639 4.96387H8.16387C7.04376 4.96387 6.48371 4.96387 6.05589 5.18185C5.67956 5.3736 5.3736 5.67956 5.18185 6.05589C4.96387 6.48371 4.96387 7.04376 4.96387 8.16387V17.7639C4.96387 18.884 4.96387 19.444 5.18185 19.8718C5.3736 20.2482 5.67956 20.5541 6.05589 20.7459C6.48371 20.9639 7.04376 20.9639 8.16387 20.9639ZM17.9639 12.9639C17.9639 15.7253 15.7253 17.9639 12.9639 17.9639C10.2024 17.9639 7.96387 15.7253 7.96387 12.9639C7.96387 10.2024 10.2024 7.96387 12.9639 7.96387C15.7253 7.96387 17.9639 10.2024 17.9639 12.9639ZM13.4639 12.9639C13.4639 13.24 13.24 13.4639 12.9639 13.4639C12.6877 13.4639 12.4639 13.24 12.4639 12.9639C12.4639 12.6877 12.6877 12.4639 12.9639 12.4639C13.24 12.4639 13.4639 12.6877 13.4639 12.9639Z" stroke="black" stroke-width="2" stroke-linecap="round" stroke-linejoin="round"/>
</svg>
