<svg width="24" height="24" viewBox="0 0 24 24" fill="none" xmlns="http://www.w3.org/2000/svg">
<path d="M12.0002 12.0002V14.0002C13.1048 14.0002 14.0002 13.1048 14.0002 12.0002H12.0002ZM12.0002 12.0002H12.0002H10.0002C10.0002 13.1048 10.8956 14.0002 12.0002 14.0002V12.0002ZM12.0002 12.0002H12.0002V10.0002C10.8956 10.0002 10.0002 10.8956 10.0002 12.0002H12.0002ZM12.0002 12.0002H14.0002C14.0002 10.8956 13.1048 10.0002 12.0002 10.0002V12.0002ZM12.0002 13.0002H12.0102V11.0002H12.0002V13.0002ZM14.8286 14.8286C12.7579 16.8993 10.5345 18.3568 8.64907 19.0639C6.67076 19.8057 5.45764 19.5998 4.92913 19.0713L3.51492 20.4855C4.93902 21.9096 7.23488 21.7302 9.35132 20.9365C11.5606 20.108 14.0178 18.4679 16.2428 16.2428L14.8286 14.8286ZM4.92913 19.0713C4.40061 18.5427 4.19466 17.3296 4.93653 15.3513C5.64358 13.4658 7.10106 11.2425 9.17177 9.17177L7.75756 7.75756C5.5325 9.98262 3.89235 12.4398 3.06387 14.6491C2.2702 16.7655 2.09081 19.0614 3.51492 20.4855L4.92913 19.0713ZM9.17177 9.17177C11.2425 7.10106 13.4658 5.64358 15.3513 4.93653C17.3296 4.19466 18.5427 4.40061 19.0713 4.92913L20.4855 3.51491C19.0614 2.09081 16.7655 2.2702 14.6491 3.06387C12.4398 3.89235 9.98262 5.5325 7.75756 7.75756L9.17177 9.17177ZM19.0713 4.92913C19.5998 5.45764 19.8057 6.67076 19.0639 8.64907C18.3568 10.5345 16.8993 12.7579 14.8286 14.8286L16.2428 16.2428C18.4679 14.0178 20.108 11.5606 20.9365 9.35132C21.7302 7.23488 21.9096 4.93902 20.4855 3.51491L19.0713 4.92913ZM14.8286 9.17177C16.8993 11.2425 18.3568 13.4658 19.0639 15.3513C19.8057 17.3296 19.5998 18.5427 19.0713 19.0713L20.4855 20.4855C21.9096 19.0614 21.7302 16.7655 20.9365 14.6491C20.108 12.4398 18.4679 9.98262 16.2428 7.75756L14.8286 9.17177ZM19.0713 19.0713C18.5427 19.5998 17.3296 19.8057 15.3513 19.0639C13.4658 18.3568 11.2425 16.8993 9.17177 14.8286L7.75756 16.2428C9.98262 18.4679 12.4398 20.108 14.6491 20.9365C16.7655 21.7302 19.0614 21.9096 20.4855 20.4855L19.0713 19.0713ZM9.17177 14.8286C7.10106 12.7579 5.64358 10.5345 4.93653 8.64907C4.19466 6.67076 4.40061 5.45764 4.92913 4.92913L3.51491 3.51491C2.09081 4.93902 2.2702 7.23488 3.06387 9.35132C3.89235 11.5606 5.5325 14.0178 7.75756 16.2428L9.17177 14.8286ZM4.92913 4.92913C5.45764 4.40061 6.67076 4.19466 8.64907 4.93653C10.5345 5.64358 12.7579 7.10106 14.8286 9.17177L16.2428 7.75756C14.0178 5.5325 11.5606 3.89235 9.35132 3.06387C7.23488 2.2702 4.93902 2.09081 3.51491 3.51491L4.92913 4.92913Z" fill="black"/>
</svg>
