<svg width="25" height="25" viewBox="0 0 25 25" fill="none" xmlns="http://www.w3.org/2000/svg">
<path d="M7.38053 14.9639L9.46387 9.96387L11.5472 14.9639M7.38053 14.9639L6.96387 15.9639M7.38053 14.9639H11.5472M11.5472 14.9639L11.9639 15.9639M15.9639 15.9639H14.9639C14.6877 15.9639 14.4639 15.74 14.4639 15.4639V14.4639M19.9639 19.9639H5.96387C4.8593 19.9639 3.96387 19.0684 3.96387 17.9639V7.96387C3.96387 6.8593 4.8593 5.96387 5.96387 5.96387M11.564 5.96387H19.9639C21.0684 5.96387 21.9639 6.8593 21.9639 7.96387V16.3638M15.564 9.96387H15.9639C17.6207 9.96387 18.9639 11.307 18.9639 12.9639C18.9639 13.0914 18.9559 13.217 18.9405 13.3404M3.96387 3.96387L14.4639 14.4639M21.9639 21.9639L14.4639 14.4639" stroke="black" stroke-width="2" stroke-linecap="round" stroke-linejoin="round"/>
</svg>
