<svg width="25" height="25" viewBox="0 0 25 25" fill="none" xmlns="http://www.w3.org/2000/svg">
<path d="M7.38053 14.9639L9.46387 9.96387L11.5472 14.9639M7.38053 14.9639L6.96387 15.9639M7.38053 14.9639H11.5472M11.5472 14.9639L11.9639 15.9639M14.4639 10.4639V15.4639C14.4639 15.74 14.6877 15.9639 14.9639 15.9639H15.9639C17.6207 15.9639 18.9639 14.6207 18.9639 12.9639C18.9639 11.307 17.6207 9.96387 15.9639 9.96387H14.9639C14.6877 9.96387 14.4639 10.1877 14.4639 10.4639ZM5.96387 19.9639H19.9639C21.0684 19.9639 21.9639 19.0684 21.9639 17.9639V7.96387C21.9639 6.8593 21.0684 5.96387 19.9639 5.96387H5.96387C4.8593 5.96387 3.96387 6.8593 3.96387 7.96387V17.9639C3.96387 19.0684 4.8593 19.9639 5.96387 19.9639Z" stroke="black" stroke-width="2" stroke-linecap="round" stroke-linejoin="round"/>
</svg>
