<svg width="24" height="24" viewBox="0 0 24 24" fill="none" xmlns="http://www.w3.org/2000/svg">
<path d="M11 12.0005C11 13.1051 10.1046 14.0005 9 14.0005C7.89543 14.0005 7 13.1051 7 12.0005C7 10.896 7.89543 10.0005 9 10.0005C10.1046 10.0005 11 10.896 11 12.0005Z" stroke="black" stroke-width="2" stroke-linecap="round" stroke-linejoin="round"/>
<path d="M17 12.0005C17 13.1051 16.1046 14.0005 15 14.0005C13.8954 14.0005 13 13.1051 13 12.0005C13 10.896 13.8954 10.0005 15 10.0005C16.1046 10.0005 17 10.896 17 12.0005Z" stroke="black" stroke-width="2" stroke-linecap="round" stroke-linejoin="round"/>
<path d="M14 6.81055C14 7.91512 13.1046 8.81055 12 8.81055C10.8954 8.81055 10 7.91512 10 6.81055C10 5.70598 10.8954 4.81055 12 4.81055C13.1046 4.81055 14 5.70598 14 6.81055Z" stroke="black" stroke-width="2" stroke-linecap="round" stroke-linejoin="round"/>
<path d="M8 17.1905C8 18.2951 7.10457 19.1905 6 19.1905C4.89543 19.1905 4 18.2951 4 17.1905C4 16.086 4.89543 15.1905 6 15.1905C7.10457 15.1905 8 16.086 8 17.1905Z" stroke="black" stroke-width="2" stroke-linecap="round" stroke-linejoin="round"/>
<path d="M14 17.1905C14 18.2951 13.1046 19.1905 12 19.1905C10.8954 19.1905 10 18.2951 10 17.1905C10 16.086 10.8954 15.1905 12 15.1905C13.1046 15.1905 14 16.086 14 17.1905Z" stroke="black" stroke-width="2" stroke-linecap="round" stroke-linejoin="round"/>
<path d="M20 17.1905C20 18.2951 19.1046 19.1905 18 19.1905C16.8954 19.1905 16 18.2951 16 17.1905C16 16.086 16.8954 15.1905 18 15.1905C19.1046 15.1905 20 16.086 20 17.1905Z" stroke="black" stroke-width="2" stroke-linecap="round" stroke-linejoin="round"/>
</svg>
