<svg width="24" height="24" viewBox="0 0 24 24" fill="none" xmlns="http://www.w3.org/2000/svg">
<path d="M22.0008 11.9998C22.0008 8.71468 20.4167 5.79954 17.9707 3.97656C17.9906 4.14822 18 4.32282 18 4.49981C18 6.81609 16.25 8.72363 14 8.97235V4.99982L13 6.99982H11L10 4.99982V8.97235C7.75002 8.72363 6 6.81609 6 4.49981C6 4.32282 6.01022 4.14822 6.0301 3.97656C3.58409 5.79954 2 8.71468 2 11.9998C2 13.1778 2.20406 14.3082 2.57812 15.3577C3.00138 15.1294 3.48575 14.9998 4.00038 14.9998C5.58039 14.9998 6.87512 16.2213 6.99182 17.7714C7.52359 17.2918 8.22826 16.9998 9.00075 16.9998C10.6576 16.9998 12.0008 18.343 12.0008 19.9998C12.0008 18.343 13.3431 16.9998 15 16.9998C15.7725 16.9998 16.4768 17.2918 17.0086 17.7714C17.1253 16.2213 18.4212 14.9998 20.0012 14.9998C20.5158 14.9998 20.9998 15.1294 21.4231 15.3577C21.7971 14.3082 22.0008 13.1778 22.0008 11.9998Z" stroke="black" stroke-width="2" stroke-linecap="round" stroke-linejoin="round"/>
</svg>
