<svg width="25" height="25" viewBox="0 0 25 25" fill="none" xmlns="http://www.w3.org/2000/svg">
<path d="M19.9639 10.9639V8.16387C19.9639 7.04376 19.9639 6.48371 19.7459 6.05589C19.5541 5.67956 19.2482 5.3736 18.8718 5.18185C18.444 4.96387 17.884 4.96387 16.7639 4.96387H9.16387C8.04376 4.96387 7.48371 4.96387 7.05589 5.18185C6.67956 5.3736 6.3736 5.67956 6.18185 6.05589C5.96387 6.48371 5.96387 7.04376 5.96387 8.16387V10.9639M9.96387 10.9639V8.96387M12.9639 10.9639V8.96387M15.9639 10.9639V8.96387M7.16387 20.9639H18.7639C19.884 20.9639 20.444 20.9639 20.8718 20.7459C21.2482 20.5541 21.5541 20.2482 21.7459 19.8718C21.9639 19.444 21.9639 18.884 21.9639 17.7639V14.1639C21.9639 13.0438 21.9639 12.4837 21.7459 12.0559C21.5541 11.6796 21.2482 11.3736 20.8718 11.1819C20.444 10.9639 19.884 10.9639 18.7639 10.9639H7.16387C6.04376 10.9639 5.48371 10.9639 5.05589 11.1819C4.67956 11.3736 4.3736 11.6796 4.18185 12.0559C3.96387 12.4837 3.96387 13.0438 3.96387 14.1639V17.7639C3.96387 18.884 3.96387 19.444 4.18185 19.8718C4.3736 20.2482 4.67956 20.5541 5.05589 20.7459C5.48371 20.9639 6.04376 20.9639 7.16387 20.9639ZM10.9639 15.9639C10.9639 17.0684 10.0684 17.9639 8.96387 17.9639C7.8593 17.9639 6.96387 17.0684 6.96387 15.9639C6.96387 14.8593 7.8593 13.9639 8.96387 13.9639C10.0684 13.9639 10.9639 14.8593 10.9639 15.9639ZM18.9639 15.9639C18.9639 17.0684 18.0684 17.9639 16.9639 17.9639C15.8593 17.9639 14.9639 17.0684 14.9639 15.9639C14.9639 14.8593 15.8593 13.9639 16.9639 13.9639C18.0684 13.9639 18.9639 14.8593 18.9639 15.9639Z" stroke="black" stroke-width="2" stroke-linecap="round" stroke-linejoin="round"/>
</svg>
