<svg width="25" height="25" viewBox="0 0 25 25" fill="none" xmlns="http://www.w3.org/2000/svg">
<path d="M14.9639 4.96387H8.96387C8.03198 4.96387 7.56604 4.96387 7.1985 5.11611C6.70844 5.3191 6.3191 5.70844 6.11611 6.1985C5.96387 6.56604 5.96387 7.53198 5.96387 8.46387V8.96471M6.96387 11.9639H13.9639M5.96387 8.96471C6.08573 8.96387 6.21851 8.96387 6.36387 8.96387H14.5639C15.4039 8.96387 15.824 8.96387 16.1449 9.12736C16.4271 9.27117 16.6566 9.50064 16.8004 9.78288C16.9639 10.1037 16.9639 10.5238 16.9639 11.3639V17.7639C16.9639 18.884 16.9639 19.444 16.7459 19.8718C16.5541 20.2482 16.2482 20.5541 15.8718 20.7459C15.444 20.9639 14.884 20.9639 13.7639 20.9639H7.16387C6.04376 20.9639 5.48371 20.9639 5.05589 20.7459C4.67956 20.5541 4.3736 20.2482 4.18185 19.8718C3.96387 19.444 3.96387 18.884 3.96387 17.7639V11.3639C3.96387 10.5238 3.96387 10.1037 4.12736 9.78288C4.27117 9.50064 4.50064 9.27117 4.78288 9.12736C5.04823 8.99216 5.3814 8.96876 5.96387 8.96471ZM16.9639 12.9639L20.7523 10.6908C21.1488 10.4529 21.3471 10.3339 21.5103 10.3491C21.6525 10.3624 21.7823 10.4359 21.8669 10.551C21.9639 10.6831 21.9639 10.9143 21.9639 11.3768V18.5509C21.9639 19.0134 21.9639 19.2446 21.8669 19.3767C21.7823 19.4919 21.6525 19.5654 21.5103 19.5786C21.3471 19.5938 21.1488 19.4749 20.7523 19.2369L16.9639 16.9639" stroke="black" stroke-width="2" stroke-linecap="round" stroke-linejoin="round"/>
</svg>
