<svg width="25" height="25" viewBox="0 0 25 25" fill="none" xmlns="http://www.w3.org/2000/svg">
<path d="M7.96387 19.9639L8.3579 18.3878C8.57456 17.5211 8.68289 17.0878 8.92449 16.7651C9.13765 16.4804 9.42286 16.2577 9.75074 16.12C10.1223 15.9639 10.569 15.9639 11.4624 15.9639H14.4654C15.3587 15.9639 15.8054 15.9639 16.177 16.12C16.5049 16.2577 16.7901 16.4804 17.0032 16.7651C17.2448 17.0878 17.3532 17.5211 17.5698 18.3878L17.9639 19.9639M8.96387 12.9639C10.0684 12.9639 10.9639 12.0684 10.9639 10.9639C10.9639 9.8593 10.0684 8.96387 8.96387 8.96387M8.96387 12.9639C7.8593 12.9639 6.96387 12.0684 6.96387 10.9639C6.96387 9.8593 7.8593 8.96387 8.96387 8.96387M8.96387 12.9639H16.9639M8.96387 8.96387H16.9639M16.9639 12.9639C18.0684 12.9639 18.9639 12.0684 18.9639 10.9639C18.9639 9.8593 18.0684 8.96387 16.9639 8.96387M16.9639 12.9639C15.8593 12.9639 14.9639 12.0684 14.9639 10.9639C14.9639 9.8593 15.8593 8.96387 16.9639 8.96387M7.16387 19.9639H18.7639C19.884 19.9639 20.444 19.9639 20.8718 19.7459C21.2482 19.5541 21.5541 19.2482 21.7459 18.8718C21.9639 18.444 21.9639 17.884 21.9639 16.7639V9.16387C21.9639 8.04376 21.9639 7.48371 21.7459 7.05589C21.5541 6.67956 21.2482 6.3736 20.8718 6.18185C20.444 5.96387 19.884 5.96387 18.7639 5.96387H7.16387C6.04376 5.96387 5.48371 5.96387 5.05589 6.18185C4.67956 6.3736 4.3736 6.67956 4.18185 7.05589C3.96387 7.48371 3.96387 8.04376 3.96387 9.16387V16.7639C3.96387 17.884 3.96387 18.444 4.18185 18.8718C4.3736 19.2482 4.67956 19.5541 5.05589 19.7459C5.48371 19.9639 6.04376 19.9639 7.16387 19.9639Z" stroke="black" stroke-width="2"/>
</svg>
