<svg width="25" height="25" viewBox="0 0 25 25" fill="none" xmlns="http://www.w3.org/2000/svg">
<path d="M4.19385 16.5657V20.5657M4.19385 18.5657H7.07316C7.47692 18.5657 7.67881 18.5657 7.85187 18.4993C8.00474 18.4406 8.14086 18.3452 8.24827 18.2216C8.36986 18.0817 8.43885 17.892 8.57683 17.5125L10.1938 13.0657M17.1938 15.0657L18.9305 15.9341C19.3778 16.1577 19.6014 16.2695 19.8218 16.2761C20.0159 16.2818 20.2075 16.231 20.3732 16.1296C20.5613 16.0146 20.6999 15.8066 20.9773 15.3905L21.1885 15.0738C21.5359 14.5526 21.7097 14.292 21.7303 14.0329C21.7484 13.8054 21.6882 13.5786 21.5596 13.3901C21.4131 13.1754 21.133 13.0353 20.5727 12.7552L20.1938 12.5657M5.05373 8.59165L6.92483 5.38405C7.19522 4.92053 7.33041 4.68876 7.52426 4.5602C7.69487 4.44703 7.89611 4.38896 8.10079 4.39384C8.33333 4.39937 8.57121 4.52349 9.04698 4.77171L16.9422 8.89098C17.6896 9.28093 18.0634 9.47591 18.2088 9.75211C18.3359 9.99337 18.3589 10.276 18.2726 10.5347C18.1738 10.8308 17.8366 11.0837 17.1621 11.5895L13.9849 13.9724C13.6978 14.1878 13.5542 14.2955 13.3946 14.3468C13.2535 14.3922 13.1041 14.4057 12.9572 14.3863C12.791 14.3643 12.6305 14.284 12.3094 14.1235L5.72023 10.8289C5.18937 10.5635 4.92394 10.4308 4.77919 10.2266C4.65198 10.0471 4.58751 9.83064 4.59576 9.6108C4.60514 9.36065 4.75467 9.10432 5.05373 8.59165Z" stroke="black" stroke-width="2" stroke-linecap="round" stroke-linejoin="round"/>
</svg>
