<svg width="24" height="24" viewBox="0 0 24 24" fill="none" xmlns="http://www.w3.org/2000/svg">
<path d="M11.9844 9V18M10.8477 9.5L11.9846 10.5L13.1213 9.5M10.8477 17.5L11.9846 16.5L13.1213 17.5M7.56838 11.25L16.4298 15.75M8.89777 11.925L7.50002 12.2545M8.89603 11.925L8.5215 10.6956M15.4761 16.3044L15.1016 15.075L16.4993 14.7457M16.4298 11.25L7.56838 15.75M8.89993 15.075L8.52541 16.3044M8.89777 15.0751L7.50002 14.7457M16.4993 12.2545L15.1016 11.925L15.4761 10.6956M15 6C15 5.06812 15 4.60218 14.8478 4.23463C14.6448 3.74458 14.2554 3.35523 13.7654 3.15224C13.3978 3 12.9319 3 12 3C11.0681 3 10.6022 3 10.2346 3.15224C9.74459 3.35523 9.35525 3.74458 9.15226 4.23463C9.00002 4.60218 9.00002 5.06812 9.00002 6M4.00002 6H20L20.7725 17.5871C20.8516 18.7738 20.8912 19.3672 20.6846 19.824C20.5031 20.2254 20.1941 20.5557 19.8056 20.7635C19.3636 21 18.7689 21 17.5796 21H6.42045C5.23112 21 4.63646 21 4.1944 20.7635C3.80592 20.5557 3.49693 20.2254 3.31542 19.824C3.10887 19.3672 3.14843 18.7738 3.22754 17.5871L4.00002 6Z" stroke="black" stroke-width="2" stroke-linecap="round" stroke-linejoin="round"/>
</svg>
