<svg width="25" height="25" viewBox="0 0 25 25" fill="none" xmlns="http://www.w3.org/2000/svg">
<path d="M17.9639 11.9639V13.9639C17.9639 16.7253 15.7253 18.9639 12.9639 18.9639C10.2024 18.9639 7.96387 16.7253 7.96387 13.9639V11.9639M21.9639 12.9639C21.9639 17.9344 17.9344 21.9639 12.9639 21.9639C7.9933 21.9639 3.96387 17.9344 3.96387 12.9639C3.96387 7.9933 7.9933 3.96387 12.9639 3.96387C17.9344 3.96387 21.9639 7.9933 21.9639 12.9639ZM12.9639 15.9639C11.8593 15.9639 10.9639 15.0684 10.9639 13.9639V8.96387C10.9639 7.8593 11.8593 6.96387 12.9639 6.96387C14.0684 6.96387 14.9639 7.8593 14.9639 8.96387V13.9639C14.9639 15.0684 14.0684 15.9639 12.9639 15.9639Z" stroke="black" stroke-width="2" stroke-linecap="round" stroke-linejoin="round"/>
</svg>
