<svg width="25" height="25" viewBox="0 0 25 25" fill="none" xmlns="http://www.w3.org/2000/svg">
<path d="M14.9639 11.9639L17.9639 10.4639V15.4639L14.9639 13.9639M21.9639 12.9639C21.9639 17.9344 17.9344 21.9639 12.9639 21.9639C7.9933 21.9639 3.96387 17.9344 3.96387 12.9639C3.96387 7.9933 7.9933 3.96387 12.9639 3.96387C17.9344 3.96387 21.9639 7.9933 21.9639 12.9639ZM8.96387 15.9639H13.9639C14.5162 15.9639 14.9639 15.5162 14.9639 14.9639V10.9639C14.9639 10.4116 14.5162 9.96387 13.9639 9.96387H8.96387C8.41158 9.96387 7.96387 10.4116 7.96387 10.9639V14.9639C7.96387 15.5162 8.41158 15.9639 8.96387 15.9639Z" stroke="black" stroke-width="2" stroke-linecap="round" stroke-linejoin="round"/>
</svg>
