<svg width="25" height="25" viewBox="0 0 25 25" fill="none" xmlns="http://www.w3.org/2000/svg">
<path d="M3.96387 9.96387H10.4639M21.9639 9.96387H10.4639M10.4639 9.96387L15.4639 4.96387M15.4639 4.96387H18.7639C19.8106 4.96387 20.3683 4.96387 20.786 5.14177M15.4639 4.96387H7.16387C6.04376 4.96387 5.48371 4.96387 5.05589 5.18185C4.67956 5.3736 4.3736 5.67956 4.18185 6.05589C3.96387 6.48371 3.96387 7.04376 3.96387 8.16387V17.7639C3.96387 18.884 3.96387 19.444 4.18185 19.8718C4.3736 20.2482 4.67956 20.5541 5.05589 20.7459C5.48371 20.9639 6.04376 20.9639 7.16387 20.9639H18.7639C19.884 20.9639 20.444 20.9639 20.8718 20.7459C21.2482 20.5541 21.5541 20.2482 21.7459 19.8718C21.9639 19.444 21.9639 18.884 21.9639 17.7639V8.16387C21.9639 7.04376 21.9639 6.48371 21.7459 6.05589C21.5541 5.67956 21.2482 5.3736 20.8718 5.18185C20.8438 5.16758 20.8152 5.15424 20.786 5.14177M9.96387 4.96387L4.96387 9.96387M15.9639 9.96402L20.786 5.14177M15.9639 15.4639L10.9639 18.4639V12.4639L15.9639 15.4639Z" stroke="black" stroke-width="2" stroke-linejoin="round"/>
</svg>
