<svg width="25" height="25" viewBox="0 0 25 25" fill="none" xmlns="http://www.w3.org/2000/svg">
<path d="M10.9639 11.4639V7.96387M13.9639 11.4639V7.96387M16.9639 11.4639V7.96387M8.96387 7.96387H18.9639M12.9639 14.4639H12.9739M8.96387 14.4639H8.97387M16.9639 14.4639H16.9739M3.96387 12.9639V15.9639L5.96387 17.4639H18.9639L21.9639 18.9639V9.96387L18.9639 11.4639H5.96387L3.96387 12.9639ZM13.4639 14.4639C13.4639 14.74 13.24 14.9639 12.9639 14.9639C12.6877 14.9639 12.4639 14.74 12.4639 14.4639C12.4639 14.1877 12.6877 13.9639 12.9639 13.9639C13.24 13.9639 13.4639 14.1877 13.4639 14.4639ZM9.46387 14.4639C9.46387 14.74 9.24001 14.9639 8.96387 14.9639C8.68772 14.9639 8.46387 14.74 8.46387 14.4639C8.46387 14.1877 8.68772 13.9639 8.96387 13.9639C9.24001 13.9639 9.46387 14.1877 9.46387 14.4639ZM17.4639 14.4639C17.4639 14.74 17.24 14.9639 16.9639 14.9639C16.6877 14.9639 16.4639 14.74 16.4639 14.4639C16.4639 14.1877 16.6877 13.9639 16.9639 13.9639C17.24 13.9639 17.4639 14.1877 17.4639 14.4639Z" stroke="black" stroke-width="2" stroke-linecap="round" stroke-linejoin="round"/>
</svg>
