<svg width="25" height="25" viewBox="0 0 25 25" fill="none" xmlns="http://www.w3.org/2000/svg">
<path d="M11.4639 11.1389C11.0395 10.7188 10.482 10.4639 9.87139 10.4639C8.54175 10.4639 7.46387 11.6727 7.46387 13.1639C7.46387 14.655 8.54175 15.8639 9.87139 15.8639C10.482 15.8639 11.0395 15.609 11.4639 15.1889M18.4639 11.1389C18.0395 10.7188 17.482 10.4639 16.8714 10.4639C15.5418 10.4639 14.4639 11.6727 14.4639 13.1639C14.4639 14.655 15.5418 15.8639 16.8714 15.8639C17.482 15.8639 18.0395 15.609 18.4639 15.1889M7.16387 19.9639H18.7639C19.884 19.9639 20.444 19.9639 20.8718 19.7459C21.2482 19.5541 21.5541 19.2482 21.7459 18.8718C21.9639 18.444 21.9639 17.884 21.9639 16.7639V9.16387C21.9639 8.04376 21.9639 7.48371 21.7459 7.05589C21.5541 6.67956 21.2482 6.3736 20.8718 6.18185C20.444 5.96387 19.884 5.96387 18.7639 5.96387H7.16387C6.04376 5.96387 5.48371 5.96387 5.05589 6.18185C4.67956 6.3736 4.3736 6.67956 4.18185 7.05589C3.96387 7.48371 3.96387 8.04376 3.96387 9.16387V16.7639C3.96387 17.884 3.96387 18.444 4.18185 18.8718C4.3736 19.2482 4.67956 19.5541 5.05589 19.7459C5.48371 19.9639 6.04376 19.9639 7.16387 19.9639Z" stroke="black" stroke-width="2" stroke-linecap="round" stroke-linejoin="round"/>
</svg>
