<svg width="25" height="25" viewBox="0 0 25 25" fill="none" xmlns="http://www.w3.org/2000/svg">
<path d="M7.46387 13.2139C7.46387 10.0382 10.0382 7.46387 13.2139 7.46387M21.9639 12.9639C21.9639 17.9344 17.9344 21.9639 12.9639 21.9639C7.9933 21.9639 3.96387 17.9344 3.96387 12.9639C3.96387 7.9933 7.9933 3.96387 12.9639 3.96387C17.9344 3.96387 21.9639 7.9933 21.9639 12.9639ZM14.9639 12.9639C14.9639 14.0684 14.0684 14.9639 12.9639 14.9639C11.8593 14.9639 10.9639 14.0684 10.9639 12.9639C10.9639 11.8593 11.8593 10.9639 12.9639 10.9639C14.0684 10.9639 14.9639 11.8593 14.9639 12.9639Z" stroke="black" stroke-width="2" stroke-linecap="round" stroke-linejoin="round"/>
</svg>
