<svg width="24" height="24" viewBox="0 0 24 24" fill="none" xmlns="http://www.w3.org/2000/svg">
<path d="M12 10.231L3.08495 7.02358M12 10.231L20.9178 7.03418M12 10.231V20.8793M5.13498 18.5772L10.935 20.6243C11.3297 20.7636 11.527 20.8332 11.7294 20.8609C11.909 20.8854 12.091 20.8854 12.2706 20.8609C12.473 20.8332 12.6703 20.7636 13.065 20.6243L18.865 18.5772C19.6337 18.3059 20.018 18.1703 20.3018 17.927C20.5523 17.7122 20.7459 17.4387 20.8651 17.1309C21 16.7824 21 16.3748 21 15.5597V8.4407C21 7.62555 21 7.21797 20.8651 6.86947C20.7459 6.56167 20.5523 6.28816 20.3018 6.07332C20.018 5.83008 19.6337 5.69443 18.865 5.42313L13.065 3.37607C12.6703 3.23677 12.473 3.16712 12.2706 3.13948C12.091 3.11496 11.909 3.11496 11.7294 3.13948C11.527 3.16712 11.3297 3.23677 10.935 3.37607L5.13498 5.42313C4.36629 5.69443 3.98195 5.83008 3.69824 6.07332C3.44766 6.28816 3.25414 6.56167 3.13495 6.86947C3 7.21797 3 7.62555 3 8.4407V15.5597C3 16.3748 3 16.7824 3.13495 17.1309C3.25414 17.4387 3.44766 17.7122 3.69824 17.927C3.98195 18.1703 4.36629 18.3059 5.13498 18.5772Z" stroke="black" stroke-width="2" stroke-linecap="round" stroke-linejoin="round"/>
</svg>
