<svg width="25" height="25" viewBox="0 0 25 25" fill="none" xmlns="http://www.w3.org/2000/svg">
<path d="M21.4639 13.9639H21.4539M12.9639 5.46387H12.9539M4.46387 13.9639H4.45387M18.9639 7.96387H18.9539M6.96387 7.96387H6.95387M18.9639 19.9639H18.9539M6.96387 19.9639H6.95387M12.9639 9.96387C10.7547 9.96387 8.96387 11.7547 8.96387 13.9639C8.96387 16.173 10.7547 17.9639 12.9639 17.9639C15.173 17.9639 16.9639 16.173 16.9639 13.9639C16.9639 11.7547 15.173 9.96387 12.9639 9.96387ZM12.9639 9.96387V13.9639M20.9639 13.9639C20.9639 14.24 21.1877 14.4639 21.4639 14.4639C21.74 14.4639 21.9639 14.24 21.9639 13.9639C21.9639 13.6877 21.74 13.4639 21.4639 13.4639C21.1877 13.4639 20.9639 13.6877 20.9639 13.9639ZM12.4639 5.46387C12.4639 5.74001 12.6877 5.96387 12.9639 5.96387C13.24 5.96387 13.4639 5.74001 13.4639 5.46387C13.4639 5.18772 13.24 4.96387 12.9639 4.96387C12.6877 4.96387 12.4639 5.18772 12.4639 5.46387ZM3.96387 13.9639C3.96387 13.6877 4.18772 13.4639 4.46387 13.4639C4.74001 13.4639 4.96387 13.6877 4.96387 13.9639C4.96387 14.24 4.74001 14.4639 4.46387 14.4639C4.18772 14.4639 3.96387 14.24 3.96387 13.9639ZM18.4639 7.96387C18.4639 8.24001 18.6877 8.46387 18.9639 8.46387C19.24 8.46387 19.4639 8.24001 19.4639 7.96387C19.4639 7.68772 19.24 7.46387 18.9639 7.46387C18.6877 7.46387 18.4639 7.68772 18.4639 7.96387ZM6.46387 7.96387C6.46387 7.68773 6.68772 7.46387 6.96387 7.46387C7.24001 7.46387 7.46387 7.68773 7.46387 7.96387C7.46387 8.24001 7.24001 8.46387 6.96387 8.46387C6.68772 8.46387 6.46387 8.24001 6.46387 7.96387ZM18.4639 19.9639C18.4639 20.24 18.6877 20.4639 18.9639 20.4639C19.24 20.4639 19.4639 20.24 19.4639 19.9639C19.4639 19.6877 19.24 19.4639 18.9639 19.4639C18.6877 19.4639 18.4639 19.6877 18.4639 19.9639ZM6.46387 19.9639C6.46387 19.6877 6.68772 19.4639 6.96387 19.4639C7.24001 19.4639 7.46387 19.6877 7.46387 19.9639C7.46387 20.24 7.24001 20.4639 6.96387 20.4639C6.68772 20.4639 6.46387 20.24 6.46387 19.9639Z" stroke="black" stroke-width="2" stroke-linecap="round"/>
</svg>
