<svg width="24" height="24" viewBox="0 0 24 24" fill="none" xmlns="http://www.w3.org/2000/svg">
<path d="M4.26244 14.2625C3.47041 13.4705 3.07439 13.0745 2.92601 12.6178C2.7955 12.2161 2.7955 11.7834 2.92601 11.3817C3.07439 10.9251 3.47041 10.5291 4.26244 9.73703L9.73703 4.26244C10.5291 3.47041 10.9251 3.07439 11.3817 2.92601C11.7834 2.7955 12.2161 2.7955 12.6178 2.92601C13.0745 3.07439 13.4705 3.47041 14.2625 4.26244L19.7371 9.73703C20.5291 10.5291 20.9251 10.9251 21.0735 11.3817C21.204 11.7834 21.204 12.2161 21.0735 12.6178C20.9251 13.0745 20.5291 13.4705 19.7371 14.2625L14.2625 19.7371C13.4705 20.5291 13.0745 20.9251 12.6178 21.0735C12.2161 21.204 11.7834 21.204 11.3817 21.0735C10.9251 20.9251 10.5291 20.5291 9.73703 19.7371L4.26244 14.2625Z" stroke="black" stroke-width="2" stroke-linecap="round" stroke-linejoin="round"/>
</svg>
