<svg width="25" height="25" viewBox="0 0 25 25" fill="none" xmlns="http://www.w3.org/2000/svg">
<path d="M21.9639 10.9639C21.9639 13.173 17.9344 14.9639 12.9639 14.9639M21.9639 10.9639C21.9639 8.75473 17.9344 6.96387 12.9639 6.96387C7.9933 6.96387 3.96387 8.75473 3.96387 10.9639M21.9639 10.9639V16.9639C21.9639 19.173 17.9344 20.9639 12.9639 20.9639M12.9639 14.9639C7.9933 14.9639 3.96387 13.173 3.96387 10.9639M12.9639 14.9639V20.9639M3.96387 10.9639V16.9639C3.96387 19.173 7.9933 20.9639 12.9639 20.9639M7.96387 20.2903V14.2903M17.9639 20.2903V14.2903M12.9639 10.9639L20.9639 4.96387" stroke="black" stroke-width="2" stroke-linecap="round" stroke-linejoin="round"/>
</svg>
