<svg width="24" height="24" viewBox="0 0 24 24" fill="none" xmlns="http://www.w3.org/2000/svg">
<path d="M13.1099 19.2951L12.7147 20.0802C12.4845 20.5375 12.3694 20.7662 12.2139 20.8397C12.0786 20.9037 11.9217 20.9037 11.7863 20.8397C11.6308 20.7662 11.5157 20.5375 11.2855 20.0802L10.0922 17.7095C9.98171 17.49 9.92645 17.3802 9.8416 17.3121C9.76683 17.2521 9.6764 17.2149 9.58107 17.2049C9.4729 17.1935 9.35637 17.2326 9.1233 17.3107L6.51649 18.1849C6.00872 18.3552 5.75483 18.4404 5.59008 18.3799C5.44682 18.3274 5.33539 18.2123 5.28749 18.0674C5.23242 17.9008 5.32569 17.6498 5.51223 17.1478L6.38199 14.8071C6.47347 14.5609 6.51921 14.4378 6.50844 14.3238C6.49895 14.2235 6.45938 14.1284 6.3949 14.051C6.32167 13.963 6.2021 13.9087 5.96298 13.8L3.60342 12.7281C3.0941 12.4968 2.83945 12.3811 2.76046 12.2207C2.69183 12.0814 2.69183 11.9181 2.76046 11.7788C2.83945 11.6185 3.09411 11.5028 3.60342 11.2714L5.96298 10.1995C6.2021 10.0908 6.32167 10.0365 6.3949 9.94858C6.45938 9.87114 6.49895 9.77603 6.50844 9.67571C6.51921 9.56177 6.47347 9.43867 6.38199 9.19247L5.51223 6.85173C5.32569 6.3497 5.23242 6.09869 5.28749 5.93208C5.33539 5.7872 5.44682 5.67212 5.59008 5.61959C5.75483 5.55917 6.00872 5.64431 6.51649 5.81459L9.1233 6.68878C9.35636 6.76694 9.4729 6.80602 9.58107 6.79463C9.6764 6.7846 9.76683 6.74738 9.8416 6.6874C9.92645 6.61934 9.98171 6.50956 10.0922 6.28999L11.2855 3.91935C11.5157 3.46203 11.6308 3.23336 11.7863 3.15982C11.9217 3.09581 12.0786 3.09581 12.2139 3.15982C12.3694 3.23336 12.4845 3.46203 12.7147 3.91935L13.1099 4.70448M9.76401 9.99976C9.28897 10.5305 9.00012 11.2314 9.00012 11.9998C9.00012 12.7681 9.28897 13.469 9.76401 13.9998M22.0001 11.9998C22.0001 14.7612 19.7615 16.9998 17.0001 16.9998C14.2387 16.9998 12.0001 14.7612 12.0001 11.9998C12.0001 9.23834 14.2387 6.99976 17.0001 6.99976C19.7615 6.99976 22.0001 9.23834 22.0001 11.9998Z" stroke="black" stroke-width="2" stroke-linecap="round" stroke-linejoin="round"/>
</svg>
