<svg width="25" height="25" viewBox="0 0 25 25" fill="none" xmlns="http://www.w3.org/2000/svg">
<path d="M19.9639 9.96387V18.7639C19.9639 19.884 19.9639 20.444 19.7459 20.8718C19.5541 21.2482 19.2482 21.5541 18.8718 21.7459C18.444 21.9639 17.884 21.9639 16.7639 21.9639H9.16387C8.04376 21.9639 7.48371 21.9639 7.05589 21.7459C6.67956 21.5541 6.3736 21.2482 6.18185 20.8718C5.96387 20.444 5.96387 19.884 5.96387 18.7639V7.16387C5.96387 6.04376 5.96387 5.48371 6.18185 5.05589C6.3736 4.67956 6.67956 4.3736 7.05589 4.18185C7.48371 3.96387 8.04376 3.96387 9.16387 3.96387H13.9639M19.9639 9.96387L13.9639 3.96387M19.9639 9.96387H17.1639C16.0438 9.96387 15.4837 9.96387 15.0559 9.74588C14.6796 9.55413 14.3736 9.24817 14.1819 8.87185C13.9639 8.44402 13.9639 7.88397 13.9639 6.76387V3.96387M15.4639 13.9639C16.0776 14.4552 16.4639 15.1692 16.4639 15.9639C16.4639 16.7586 16.0776 17.4725 15.4639 17.9639M9.46387 14.9639H10.7972L12.4639 12.9639V18.9639L10.7972 16.9639H9.46387V14.9639Z" stroke="black" stroke-width="2" stroke-linecap="round" stroke-linejoin="round"/>
</svg>
