<svg width="25" height="25" viewBox="0 0 25 25" fill="none" xmlns="http://www.w3.org/2000/svg">
<path d="M7.96387 7.96379V20.9639M17.9639 4.96387V12.9639H21.9639M17.9639 17.9639V20.9639M3.96387 8.96387H7.96387M17.9639 8.96387H21.9639M3.96387 16.9639H7.96387M3.96387 12.9639H12.9639M5.14035 5.14237C5.11157 5.15467 5.08345 5.16781 5.05589 5.18185C4.67956 5.3736 4.3736 5.67956 4.18185 6.05589C3.96387 6.48371 3.96387 7.04376 3.96387 8.16387V17.7639C3.96387 18.884 3.96387 19.444 4.18185 19.8718C4.3736 20.2482 4.67956 20.5541 5.05589 20.7459C5.48371 20.9639 6.04376 20.9639 7.16387 20.9639H18.7639C19.8077 20.9639 20.3652 20.9639 20.7825 20.7874M10.5652 4.96387H18.7639C19.884 4.96387 20.444 4.96387 20.8718 5.18185C21.2482 5.3736 21.5541 5.67956 21.7459 6.05589C21.9639 6.48371 21.9639 7.04376 21.9639 8.16387V16.3537M3.96387 3.96387L21.9639 21.9639" stroke="black" stroke-width="2" stroke-linecap="round" stroke-linejoin="round"/>
</svg>
