<svg width="24" height="24" viewBox="0 0 24 24" fill="none" xmlns="http://www.w3.org/2000/svg">
<path d="M8 3.00103C8.06462 3.00098 8.13126 3.00098 8.2 3.00098H13.462C14.0268 3.00098 14.3092 3.00098 14.5699 3.0728C14.7198 3.1141 14.8641 3.17266 15 3.24712M8 3.00103C7.01165 3.0018 6.49359 3.01435 6.09202 3.21896C5.71569 3.41071 5.40973 3.71667 5.21799 4.093C5 4.52082 5 5.08087 5 6.20098V17.801C5 18.9211 5 19.4811 5.21799 19.909C5.40973 20.2853 5.71569 20.5912 6.09202 20.783C6.51984 21.001 7.0799 21.001 8.2 21.001H15.8C16.9201 21.001 17.4802 21.001 17.908 20.783C18.2843 20.5912 18.5903 20.2853 18.782 19.909C19 19.4811 19 18.9211 19 17.801V9.12348C19 8.70744 19 8.49942 18.9592 8.30045C18.9229 8.12393 18.863 7.95311 18.781 7.79263C18.6886 7.61176 18.5587 7.44932 18.2988 7.12445L15.9608 4.20195C15.608 3.76092 15.4315 3.5404 15.2126 3.38167C15.1445 3.33232 15.0735 3.2874 15 3.24712M8 3.00103V6.99954H15V3.24712M15 14.9995C15 16.6564 13.6569 17.9995 12 17.9995C10.3431 17.9995 9 16.6564 9 14.9995C9 13.3427 10.3431 11.9995 12 11.9995C13.6569 11.9995 15 13.3427 15 14.9995Z" stroke="black" stroke-width="2" stroke-linecap="round" stroke-linejoin="round"/>
</svg>
