<svg width="25" height="25" viewBox="0 0 25 25" fill="none" xmlns="http://www.w3.org/2000/svg">
<path d="M7.96387 9.96387V15.9639M11.9639 12.9639H11.9739M14.9639 12.9639H14.9739M17.9639 12.9639H17.9739M5.56387 15.9639H20.3639C20.9239 15.9639 21.2039 15.9639 21.4179 15.8549C21.606 15.759 21.759 15.606 21.8549 15.4179C21.9639 15.2039 21.9639 14.9239 21.9639 14.3639V11.5639C21.9639 11.0038 21.9639 10.7238 21.8549 10.5099C21.759 10.3217 21.606 10.1687 21.4179 10.0729C21.2039 9.96387 20.9239 9.96387 20.3639 9.96387H5.56387C5.00381 9.96387 4.72379 9.96387 4.50988 10.0729C4.32171 10.1687 4.16873 10.3217 4.07286 10.5099C3.96387 10.7238 3.96387 11.0038 3.96387 11.5639V14.3639C3.96387 14.9239 3.96387 15.2039 4.07286 15.4179C4.16873 15.606 4.32171 15.759 4.50988 15.8549C4.72379 15.9639 5.00381 15.9639 5.56387 15.9639Z" stroke="black" stroke-width="2" stroke-linecap="round" stroke-linejoin="round"/>
</svg>
