<svg width="24" height="24" viewBox="0 0 24 24" fill="none" xmlns="http://www.w3.org/2000/svg">
<path d="M14.53 15.3106L13.7737 14.7799C13.1322 14.3522 12.8114 14.1384 12.4647 14.0553C12.1584 13.9819 11.839 13.9819 11.5326 14.0553C11.1859 14.1384 10.8651 14.3522 10.2236 14.7799L9.46751 15.3107M14.53 15.3106L20.5 19.5002M14.53 15.3106L20.97 11.0002M3.5 19.5002L9.46751 15.3107M9.46751 15.3107L3.02734 11.0002M6 13.0002V6.00021H18V13.0002M10.5 10.0002L9.5 9.50021M13.5 10.0002L14.5 9.50021M8.89078 4.64377L4.69079 8.21476C4.069 8.74342 3.75811 9.00776 3.53474 9.32987C3.33681 9.61529 3.18996 9.93292 3.10071 10.2686C3 10.6474 3 11.0555 3 11.8716V16.2002C3 17.8804 3 18.7204 3.32698 19.3622C3.6146 19.9267 4.07354 20.3856 4.63803 20.6732C5.27976 21.0002 6.11984 21.0002 7.8 21.0002H16.2C17.8802 21.0002 18.7202 21.0002 19.362 20.6732C19.9265 20.3856 20.3854 19.9267 20.673 19.3622C21 18.7204 21 17.8804 21 16.2002V11.8716C21 11.0555 21 10.6474 20.8993 10.2686C20.81 9.93292 20.6632 9.61529 20.4653 9.32987C20.2419 9.00776 19.931 8.74342 19.3092 8.21476L15.1092 4.64377C14.0049 3.70487 13.4528 3.23542 12.8344 3.05636C12.2893 2.89853 11.7107 2.89853 11.1656 3.05636C10.5472 3.23542 9.99507 3.70487 8.89078 4.64377Z" stroke="black" stroke-width="2" stroke-linecap="round" stroke-linejoin="round"/>
</svg>
