<svg width="24" height="24" viewBox="0 0 24 24" fill="none" xmlns="http://www.w3.org/2000/svg">
<path d="M12 5.99986L14 7.99986L10 9.99986L13 12.9999M12 5.99986C10.2006 3.90284 7.19377 3.2549 4.93923 5.17514C2.68468 7.09538 2.36727 10.3059 4.13778 12.577C5.60984 14.4653 10.0648 18.4477 11.5249 19.7367C11.6882 19.8809 11.7699 19.953 11.8652 19.9813C11.9483 20.006 12.0393 20.006 12.1225 19.9813C12.2178 19.953 12.2994 19.8809 12.4628 19.7367C13.9229 18.4477 18.3778 14.4653 19.8499 12.577C21.6204 10.3059 21.3417 7.07519 19.0484 5.17514C16.7551 3.2751 13.7994 3.90284 12 5.99986Z" stroke="black" stroke-width="2" stroke-linecap="round" stroke-linejoin="round"/>
</svg>
