<svg width="24" height="24" viewBox="0 0 24 24" fill="none" xmlns="http://www.w3.org/2000/svg">
<path d="M11.9999 8.0001V13.0001M11.9999 16.0001H12.0099M8.84745 20.6604H15.1524C15.8255 20.6604 16.162 20.6604 16.4633 20.5625C16.7298 20.4759 16.9752 20.3342 17.1835 20.1466C17.4189 19.9347 17.5872 19.6432 17.9237 19.0604L21.0762 13.6001C21.4127 13.0172 21.581 12.7258 21.6468 12.4159C21.7051 12.1418 21.7051 11.8584 21.6468 11.5843C21.581 11.2744 21.4127 10.983 21.0762 10.4001L17.9237 4.93984C17.5872 4.35696 17.4189 4.06551 17.1835 3.85355C16.9752 3.66601 16.7298 3.52434 16.4633 3.43773C16.162 3.33984 15.8255 3.33984 15.1524 3.33984H8.84745C8.17439 3.33984 7.83786 3.33984 7.53659 3.43773C7.27003 3.52434 7.02465 3.66601 6.81636 3.85355C6.58096 4.06551 6.41269 4.35696 6.07616 4.93984L2.92369 10.4001C2.58716 10.983 2.41889 11.2744 2.35303 11.5843C2.29476 11.8584 2.29476 12.1418 2.35303 12.4159C2.41889 12.7258 2.58716 13.0172 2.92369 13.6001L6.07616 19.0604C6.41269 19.6432 6.58096 19.9347 6.81636 20.1466C7.02465 20.3342 7.27003 20.4759 7.53659 20.5625C7.83786 20.6604 8.17439 20.6604 8.84745 20.6604Z" stroke="black" stroke-width="2" stroke-linecap="round" stroke-linejoin="round"/>
</svg>
