<svg width="24" height="24" viewBox="0 0 24 24" fill="none" xmlns="http://www.w3.org/2000/svg">
<path d="M14.5001 8.5001H14.5101M16.2201 19.9601L10.5513 14.2705C9.75839 13.4747 9.36192 13.0768 8.9044 12.9277C8.50196 12.7966 8.06831 12.7965 7.66583 12.9275C7.20825 13.0764 6.81164 13.4742 6.01841 14.2697L4.30348 15.9897M12.239 15.9644L12.6074 15.5951C13.4086 14.7996 13.8092 14.4018 14.2694 14.2554C14.6742 14.1267 15.1095 14.1302 15.5122 14.2654C15.97 14.4191 16.3643 14.8232 17.1527 15.6314L18.8893 17.3881M18.8893 17.3881L21.5382 12.8001C21.7065 12.5087 21.7906 12.3629 21.8235 12.208C21.8527 12.0709 21.8527 11.9293 21.8235 11.7922C21.7906 11.6373 21.7065 11.4915 21.5382 11.2001L17.462 4.13984C17.2937 3.8484 17.2096 3.70268 17.0919 3.5967C16.9877 3.50293 16.865 3.43209 16.7318 3.38879C16.5811 3.33984 16.4129 3.33984 16.0763 3.33984H7.92385C7.58732 3.33984 7.41905 3.33984 7.26842 3.38879C7.13514 3.43209 7.01245 3.50293 6.9083 3.5967C6.7906 3.70268 6.70647 3.8484 6.5382 4.13984L2.46196 11.2001C2.2937 11.4915 2.20957 11.6373 2.17664 11.7922C2.1475 11.9293 2.1475 12.0709 2.17664 12.208C2.20957 12.3629 2.2937 12.5087 2.46196 12.8001L4.30348 15.9897M18.8893 17.3881L17.462 19.8604C17.2937 20.1518 17.2096 20.2975 17.0919 20.4035C16.9877 20.4973 16.865 20.5681 16.7318 20.6114C16.5811 20.6604 16.4129 20.6604 16.0763 20.6604H7.92385C7.58732 20.6604 7.41905 20.6604 7.26842 20.6114C7.13514 20.5681 7.01245 20.4973 6.9083 20.4035C6.7906 20.2975 6.70647 20.1518 6.5382 19.8604L4.30348 15.9897M15.0001 8.5001C15.0001 8.77624 14.7762 9.0001 14.5001 9.0001C14.2239 9.0001 14.0001 8.77624 14.0001 8.5001C14.0001 8.22396 14.2239 8.0001 14.5001 8.0001C14.7762 8.0001 15.0001 8.22396 15.0001 8.5001Z" stroke="black" stroke-width="2" stroke-linecap="round" stroke-linejoin="round"/>
</svg>
