<svg width="24" height="24" viewBox="0 0 24 24" fill="none" xmlns="http://www.w3.org/2000/svg">
<path d="M12.8001 21.5377C12.5087 21.706 12.3629 21.7901 12.208 21.823C12.0709 21.8522 11.9293 21.8522 11.7922 21.823C11.6373 21.7901 11.4915 21.706 11.2001 21.5377L4.13984 17.4615C3.8484 17.2932 3.70268 17.2091 3.5967 17.0914C3.50293 16.9872 3.43209 16.8645 3.38879 16.7313C3.33984 16.5806 3.33984 16.4124 3.33984 16.0758V7.92336C3.33984 7.58683 3.33984 7.41856 3.38879 7.26793C3.43209 7.13465 3.50293 7.01196 3.5967 6.90782C3.70268 6.79011 3.8484 6.70598 4.13984 6.53772L11.2001 2.46148C11.4915 2.29321 11.6373 2.20908 11.7922 2.17615C11.9293 2.14701 12.0709 2.14701 12.208 2.17615C12.3629 2.20908 12.5087 2.29321 12.8001 2.46148L19.8604 6.53772C20.1518 6.70598 20.2975 6.79011 20.4035 6.90782C20.4973 7.01196 20.5681 7.13465 20.6114 7.26793C20.6604 7.41856 20.6604 7.58683 20.6604 7.92336V16.0758C20.6604 16.4124 20.6604 16.5806 20.6114 16.7313C20.5681 16.8645 20.4973 16.9872 20.4035 17.0914C20.2975 17.2091 20.1518 17.2932 19.8604 17.4615L12.8001 21.5377Z" stroke="black" stroke-width="2" stroke-linejoin="round"/>
</svg>
