<svg width="25" height="25" viewBox="0 0 25 25" fill="none" xmlns="http://www.w3.org/2000/svg">
<path d="M6.96387 12.9639H10.9639M6.96387 9.96387V15.9639M10.9639 9.96387V15.9639M14.4639 10.4639V15.4639C14.4639 15.74 14.6877 15.9639 14.9639 15.9639H15.9639C17.6207 15.9639 18.9639 14.6207 18.9639 12.9639C18.9639 11.307 17.6207 9.96387 15.9639 9.96387H14.9639C14.6877 9.96387 14.4639 10.1877 14.4639 10.4639ZM6.16387 19.9639H19.7639C20.884 19.9639 21.444 19.9639 21.8718 19.7459C22.2482 19.5541 22.5541 19.2482 22.7459 18.8718C22.9639 18.444 22.9639 17.884 22.9639 16.7639V9.16387C22.9639 8.04376 22.9639 7.48371 22.7459 7.05589C22.5541 6.67956 22.2482 6.3736 21.8718 6.18185C21.444 5.96387 20.884 5.96387 19.7639 5.96387H6.16387C5.04376 5.96387 4.48371 5.96387 4.05589 6.18185C3.67956 6.3736 3.3736 6.67956 3.18185 7.05589C2.96387 7.48371 2.96387 8.04376 2.96387 9.16387V16.7639C2.96387 17.884 2.96387 18.444 3.18185 18.8718C3.3736 19.2482 3.67956 19.5541 4.05589 19.7459C4.48371 19.9639 5.04376 19.9639 6.16387 19.9639Z" stroke="black" stroke-width="2" stroke-linecap="round" stroke-linejoin="round"/>
</svg>
