<svg width="74" height="12" viewBox="0 0 74 12" fill="none" xmlns="http://www.w3.org/2000/svg">
<path d="M1.46591 0.818182V11H0.232955V0.818182H1.46591ZM4.95224 6.40625V11H3.77894V3.36364H4.91246V4.55682H5.0119C5.19087 4.16903 5.46265 3.85748 5.82724 3.62216C6.19182 3.38352 6.66246 3.2642 7.23917 3.2642C7.75621 3.2642 8.20863 3.37027 8.59641 3.58239C8.9842 3.79119 9.28581 4.10938 9.50124 4.53693C9.71668 4.96117 9.8244 5.49811 9.8244 6.14773V11H8.6511V6.22727C8.6511 5.62737 8.49532 5.16004 8.18377 4.82528C7.87222 4.48722 7.44466 4.31818 6.9011 4.31818C6.52657 4.31818 6.19182 4.39938 5.89684 4.56179C5.60517 4.72419 5.37482 4.96117 5.20579 5.27273C5.03675 5.58428 4.95224 5.96212 4.95224 6.40625ZM15.369 3.36364V4.35795H11.2525V3.36364H15.369ZM12.4854 11V2.30966C12.4854 1.87216 12.5882 1.50758 12.7937 1.21591C12.9992 0.924242 13.266 0.705492 13.5941 0.559658C13.9222 0.413825 14.2686 0.340908 14.6332 0.340908C14.9215 0.340908 15.1568 0.364109 15.3391 0.410511C15.5214 0.456912 15.6573 0.499999 15.7468 0.539772L15.4087 1.55398C15.3491 1.53409 15.2662 1.50923 15.1602 1.4794C15.0574 1.44957 14.9215 1.43466 14.7525 1.43466C14.3647 1.43466 14.0846 1.53243 13.9123 1.72798C13.7433 1.92353 13.6587 2.21023 13.6587 2.58807V11H12.4854ZM19.8011 11.1591C19.1117 11.1591 18.5069 10.995 17.9865 10.6669C17.4695 10.3388 17.0651 9.87973 16.7734 9.28977C16.4851 8.69981 16.3409 8.01042 16.3409 7.22159C16.3409 6.42614 16.4851 5.73177 16.7734 5.13849C17.0651 4.54522 17.4695 4.08452 17.9865 3.75639C18.5069 3.42827 19.1117 3.2642 19.8011 3.2642C20.4905 3.2642 21.0938 3.42827 21.6108 3.75639C22.1312 4.08452 22.5355 4.54522 22.8239 5.13849C23.1155 5.73177 23.2614 6.42614 23.2614 7.22159C23.2614 8.01042 23.1155 8.69981 22.8239 9.28977C22.5355 9.87973 22.1312 10.3388 21.6108 10.6669C21.0938 10.995 20.4905 11.1591 19.8011 11.1591ZM19.8011 10.1051C20.3248 10.1051 20.7557 9.97088 21.0938 9.70241C21.4318 9.43395 21.6821 9.08097 21.8445 8.64347C22.0069 8.20597 22.0881 7.73201 22.0881 7.22159C22.0881 6.71117 22.0069 6.23556 21.8445 5.79474C21.6821 5.35393 21.4318 4.99763 21.0938 4.72585C20.7557 4.45407 20.3248 4.31818 19.8011 4.31818C19.2775 4.31818 18.8466 4.45407 18.5085 4.72585C18.1705 4.99763 17.9202 5.35393 17.7578 5.79474C17.5954 6.23556 17.5142 6.71117 17.5142 7.22159C17.5142 7.73201 17.5954 8.20597 17.7578 8.64347C17.9202 9.08097 18.1705 9.43395 18.5085 9.70241C18.8466 9.97088 19.2775 10.1051 19.8011 10.1051ZM25.0524 11V3.36364H26.1859V4.51705H26.2654C26.4047 4.1392 26.6565 3.83262 27.0211 3.5973C27.3857 3.36198 27.7967 3.24432 28.2541 3.24432C28.3403 3.24432 28.448 3.24597 28.5772 3.24929C28.7065 3.2526 28.8043 3.25758 28.8706 3.2642V4.45739C28.8308 4.44744 28.7396 4.43253 28.5971 4.41264C28.4579 4.38944 28.3104 4.37784 28.1547 4.37784C27.7834 4.37784 27.452 4.45573 27.1603 4.61151C26.872 4.76397 26.6433 4.97609 26.4743 5.24787C26.3085 5.51634 26.2257 5.82292 26.2257 6.16761V11H25.0524ZM30.2614 11V3.36364H31.3949V4.55682H31.4943C31.6534 4.14915 31.9103 3.83262 32.2649 3.60724C32.6196 3.37855 33.0455 3.2642 33.5426 3.2642C34.0464 3.2642 34.4657 3.37855 34.8004 3.60724C35.1385 3.83262 35.402 4.14915 35.5909 4.55682H35.6705C35.866 4.16241 36.1593 3.84919 36.5504 3.61719C36.9415 3.38187 37.4105 3.2642 37.9574 3.2642C38.6402 3.2642 39.1986 3.47798 39.6328 3.90554C40.067 4.32978 40.2841 4.991 40.2841 5.8892V11H39.1108V5.8892C39.1108 5.32576 38.9567 4.92306 38.6484 4.68111C38.3402 4.43916 37.9773 4.31818 37.5597 4.31818C37.0227 4.31818 36.6068 4.48059 36.3118 4.8054C36.0168 5.12689 35.8693 5.53456 35.8693 6.02841V11H34.6761V5.76989C34.6761 5.3357 34.5353 4.98603 34.2536 4.72088C33.9718 4.45241 33.6089 4.31818 33.1648 4.31818C32.8598 4.31818 32.5748 4.39938 32.3097 4.56179C32.0478 4.72419 31.8357 4.94957 31.6733 5.23793C31.5142 5.52296 31.4347 5.85275 31.4347 6.22727V11H30.2614ZM44.6765 11.179C44.1926 11.179 43.7534 11.0878 43.359 10.9055C42.9646 10.7199 42.6514 10.4531 42.4194 10.1051C42.1874 9.75379 42.0714 9.32955 42.0714 8.83239C42.0714 8.39489 42.1576 8.04025 42.3299 7.76847C42.5022 7.49337 42.7326 7.27794 43.021 7.12216C43.3093 6.96638 43.6275 6.85038 43.9755 6.77415C44.3268 6.6946 44.6798 6.63163 45.0344 6.58523C45.4985 6.52557 45.8746 6.48082 46.163 6.45099C46.4547 6.41785 46.6668 6.36316 46.7994 6.28693C46.9353 6.2107 47.0032 6.07812 47.0032 5.8892V5.84943C47.0032 5.3589 46.869 4.97775 46.6005 4.70597C46.3353 4.43419 45.9326 4.2983 45.3924 4.2983C44.8323 4.2983 44.3931 4.42093 44.0749 4.66619C43.7567 4.91146 43.533 5.1733 43.4038 5.4517L42.2901 5.05398C42.489 4.58996 42.7541 4.22869 43.0856 3.97017C43.4203 3.70833 43.7849 3.52604 44.1793 3.4233C44.5771 3.31723 44.9682 3.2642 45.3526 3.2642C45.5979 3.2642 45.8796 3.29403 46.1978 3.35369C46.5193 3.41004 46.8292 3.5277 47.1275 3.70668C47.4291 3.88565 47.6793 4.15578 47.8782 4.51705C48.0771 4.87831 48.1765 5.36222 48.1765 5.96875V11H47.0032V9.96591H46.9435C46.864 10.1316 46.7314 10.3089 46.5458 10.4979C46.3602 10.6868 46.1133 10.8475 45.805 10.9801C45.4968 11.1127 45.1206 11.179 44.6765 11.179ZM44.8555 10.125C45.3195 10.125 45.7106 10.0339 46.0288 9.85156C46.3503 9.66927 46.5922 9.43395 46.7546 9.1456C46.9203 8.85724 47.0032 8.55398 47.0032 8.2358V7.16193C46.9535 7.22159 46.8441 7.27628 46.6751 7.32599C46.5094 7.3724 46.3171 7.41383 46.0984 7.45028C45.8829 7.48343 45.6725 7.51326 45.467 7.53977C45.2648 7.56297 45.1007 7.58286 44.9748 7.59943C44.6699 7.6392 44.3848 7.70384 44.1197 7.79332C43.8578 7.8795 43.6457 8.01042 43.4833 8.18608C43.3242 8.35843 43.2447 8.59375 43.2447 8.89205C43.2447 9.29972 43.3955 9.60795 43.6971 9.81676C44.002 10.0223 44.3881 10.125 44.8555 10.125ZM53.639 3.36364V4.35795H49.6816V3.36364H53.639ZM50.835 1.53409H52.0083V8.8125C52.0083 9.14394 52.0564 9.39252 52.1525 9.55824C52.252 9.72064 52.3779 9.83002 52.5304 9.88636C52.6861 9.93939 52.8502 9.96591 53.0225 9.96591C53.1518 9.96591 53.2579 9.95928 53.3407 9.94602C53.4236 9.92945 53.4899 9.91619 53.5396 9.90625L53.7782 10.9602C53.6987 10.9901 53.5877 11.0199 53.4451 11.0497C53.3026 11.0829 53.122 11.0994 52.9032 11.0994C52.5718 11.0994 52.247 11.0282 51.9288 10.8857C51.6139 10.7431 51.3521 10.526 51.1433 10.2344C50.9378 9.94271 50.835 9.57481 50.835 9.13068V1.53409ZM55.4039 11V3.36364H56.5772V11H55.4039ZM56.0005 2.09091C55.7718 2.09091 55.5746 2.01302 55.4089 1.85724C55.2465 1.70147 55.1653 1.5142 55.1653 1.29545C55.1653 1.0767 55.2465 0.889441 55.4089 0.733664C55.5746 0.577888 55.7718 0.5 56.0005 0.5C56.2292 0.5 56.4248 0.577888 56.5872 0.733664C56.7529 0.889441 56.8358 1.0767 56.8358 1.29545C56.8358 1.5142 56.7529 1.70147 56.5872 1.85724C56.4248 2.01302 56.2292 2.09091 56.0005 2.09091ZM61.8285 11.1591C61.1391 11.1591 60.5342 10.995 60.0138 10.6669C59.4968 10.3388 59.0924 9.87973 58.8008 9.28977C58.5124 8.69981 58.3683 8.01042 58.3683 7.22159C58.3683 6.42614 58.5124 5.73177 58.8008 5.13849C59.0924 4.54522 59.4968 4.08452 60.0138 3.75639C60.5342 3.42827 61.1391 3.2642 61.8285 3.2642C62.5179 3.2642 63.1211 3.42827 63.6381 3.75639C64.1585 4.08452 64.5629 4.54522 64.8512 5.13849C65.1429 5.73177 65.2887 6.42614 65.2887 7.22159C65.2887 8.01042 65.1429 8.69981 64.8512 9.28977C64.5629 9.87973 64.1585 10.3388 63.6381 10.6669C63.1211 10.995 62.5179 11.1591 61.8285 11.1591ZM61.8285 10.1051C62.3522 10.1051 62.783 9.97088 63.1211 9.70241C63.4592 9.43395 63.7094 9.08097 63.8718 8.64347C64.0342 8.20597 64.1154 7.73201 64.1154 7.22159C64.1154 6.71117 64.0342 6.23556 63.8718 5.79474C63.7094 5.35393 63.4592 4.99763 63.1211 4.72585C62.783 4.45407 62.3522 4.31818 61.8285 4.31818C61.3048 4.31818 60.8739 4.45407 60.5359 4.72585C60.1978 4.99763 59.9476 5.35393 59.7852 5.79474C59.6228 6.23556 59.5415 6.71117 59.5415 7.22159C59.5415 7.73201 59.6228 8.20597 59.7852 8.64347C59.9476 9.08097 60.1978 9.43395 60.5359 9.70241C60.8739 9.97088 61.3048 10.1051 61.8285 10.1051ZM68.253 6.40625V11H67.0797V3.36364H68.2132V4.55682H68.3127C68.4917 4.16903 68.7634 3.85748 69.128 3.62216C69.4926 3.38352 69.9632 3.2642 70.54 3.2642C71.057 3.2642 71.5094 3.37027 71.8972 3.58239C72.285 3.79119 72.5866 4.10938 72.802 4.53693C73.0175 4.96117 73.1252 5.49811 73.1252 6.14773V11H71.9519V6.22727C71.9519 5.62737 71.7961 5.16004 71.4846 4.82528C71.173 4.48722 70.7454 4.31818 70.2019 4.31818C69.8274 4.31818 69.4926 4.39938 69.1976 4.56179C68.906 4.72419 68.6756 4.96117 68.5066 5.27273C68.3375 5.58428 68.253 5.96212 68.253 6.40625Z" fill="#131A29"/>
</svg>
