<svg width="24" height="24" viewBox="0 0 24 24" fill="none" xmlns="http://www.w3.org/2000/svg">
<path d="M14.2646 15.9376L12.5966 14.2835C11.7916 13.4852 11.3892 13.0861 10.9273 12.9402C10.5211 12.8119 10.0845 12.8166 9.68121 12.9537C9.22261 13.1096 8.82888 13.5173 8.04141 14.3327L4.04483 18.2802M14.2646 15.9376L14.606 15.5991C15.4119 14.7999 15.8149 14.4003 16.2772 14.2544C16.6838 14.1262 17.1208 14.1312 17.5243 14.2688C17.9832 14.4252 18.3768 14.834 19.1641 15.6515L20.0007 16.4936M14.2646 15.9376L18.2757 19.9566M20.9999 6.00011H14.9999M11.0007 3.99951L7.20073 4.00011C6.08063 4.00011 5.52057 4.00011 5.09275 4.21809C4.71643 4.40984 4.41047 4.7158 4.21872 5.09213C4.00073 5.51995 4.00073 6.08 4.00073 7.20011V16.8001C4.00073 17.4576 4.00073 17.9222 4.04483 18.2802M20.0007 9.99951V16.4936M4.04483 18.2802C4.07585 18.5322 4.1287 18.7314 4.21872 18.9081C4.41047 19.2844 4.71643 19.5904 5.09275 19.7821C5.52057 20.0001 6.08063 20.0001 7.20073 20.0001H16.8007C17.9208 20.0001 18.4809 20.0001 18.9087 19.7821C19.285 19.5904 19.591 19.2844 19.7827 18.9081C20.0007 18.4803 20.0007 17.9202 20.0007 16.8001V16.4936" stroke="black" stroke-width="2" stroke-linecap="round" stroke-linejoin="round"/>
</svg>
