<svg width="24" height="24" viewBox="0 0 24 24" fill="none" xmlns="http://www.w3.org/2000/svg">
<path d="M20 10L17.3255 10C16.8363 10 16.5917 10 16.3615 9.94474C16.1575 9.89575 15.9624 9.81494 15.7834 9.70528C15.5816 9.5816 15.4086 9.40864 15.0627 9.06274L14.9373 8.93726C14.5914 8.59135 14.4184 8.4184 14.2166 8.29472C14.0376 8.18506 13.8425 8.10425 13.6385 8.05526C13.4083 8 13.1637 8 12.6745 8L11.3255 8C10.8363 8 10.5917 8 10.3615 8.05526C10.1575 8.10425 9.96238 8.18506 9.78343 8.29472C9.5816 8.4184 9.40865 8.59135 9.06274 8.93726L8.93726 9.06274C8.59136 9.40864 8.4184 9.5816 8.21657 9.70528C8.03763 9.81494 7.84254 9.89575 7.63846 9.94474C7.40829 10 7.1637 10 6.67452 10L4 10M16.8 20L7.2 20C6.0799 20 5.51984 20 5.09202 19.782C4.7157 19.5903 4.40973 19.2843 4.21799 18.908C4 18.4802 4 17.9201 4 16.8L4 7.2C4 6.07989 4 5.51984 4.21799 5.09202C4.40974 4.71569 4.7157 4.40973 5.09202 4.21799C5.51984 4 6.0799 4 7.2 4L16.8 4C17.9201 4 18.4802 4 18.908 4.21799C19.2843 4.40973 19.5903 4.7157 19.782 5.09202C20 5.51984 20 6.0799 20 7.2L20 16.8C20 17.9201 20 18.4802 19.782 18.908C19.5903 19.2843 19.2843 19.5903 18.908 19.782C18.4802 20 17.9201 20 16.8 20Z" stroke="black" stroke-width="2" stroke-linecap="round" stroke-linejoin="round"/>
</svg>
