<svg width="24" height="24" viewBox="0 0 24 24" fill="none" xmlns="http://www.w3.org/2000/svg">
<path d="M10.9787 4.26973L4.59149 18.4636C4.10191 19.5516 3.85712 20.0955 3.96031 20.4146C4.04966 20.6908 4.27091 20.9042 4.55016 20.9836C4.87267 21.0753 5.40752 20.8112 6.47723 20.283L11.2916 17.9055C11.5515 17.7771 11.6815 17.713 11.8176 17.6877C11.9382 17.6653 12.0619 17.6653 12.1825 17.6877C12.3187 17.713 12.4486 17.7771 12.7085 17.9055L17.5229 20.283C18.5926 20.8112 19.1275 21.0753 19.45 20.9836C19.7293 20.9042 19.9505 20.6908 20.0399 20.4146C20.1431 20.0955 19.8983 19.5516 19.4087 18.4636L13.0214 4.26973C12.6974 3.54967 12.5354 3.18964 12.3103 3.07837C12.1148 2.98169 11.8854 2.98169 11.6898 3.07837C11.4648 3.18964 11.3028 3.54967 10.9787 4.26973Z" stroke="black" stroke-width="2" stroke-linecap="round" stroke-linejoin="round"/>
</svg>
