<svg width="24" height="24" viewBox="0 0 24 24" fill="none" xmlns="http://www.w3.org/2000/svg">
<path d="M5.36255 12.0525C4.01007 11.5713 3.33383 11.3307 3.13235 10.9657C2.95776 10.6494 2.94959 10.2676 3.11051 9.94413C3.29621 9.57087 3.96155 9.30157 5.29222 8.76296L17.8349 3.68618C19.1454 3.15571 19.8007 2.89048 20.2147 3.02647C20.574 3.14451 20.8558 3.42632 20.9738 3.78564C21.1098 4.19961 20.8446 4.85489 20.3141 6.16546L15.2373 18.7081C14.6987 20.0388 14.4294 20.7041 14.0562 20.8898C13.7327 21.0507 13.3509 21.0426 13.0346 20.868C12.6696 20.6665 12.429 19.9902 11.9478 18.6378L10.4744 14.497C10.3808 14.2338 10.3339 14.1023 10.2575 13.9924C10.1897 13.8951 10.1052 13.8106 10.0079 13.7428C9.89802 13.6664 9.76646 13.6195 9.50334 13.5259L5.36255 12.0525Z" stroke="black" stroke-width="2" stroke-linecap="round" stroke-linejoin="round"/>
</svg>
