<svg width="24" height="24" viewBox="0 0 24 24" fill="none" xmlns="http://www.w3.org/2000/svg">
<path d="M7.99991 12.0001H6.99991M16.9999 12.0001H15.9999M11.9999 8.50009L15.5838 7.42492C16.0853 7.27448 16.336 7.19926 16.5908 7.16834C16.8611 7.13553 17.1346 7.13968 17.4038 7.18066C17.6575 7.21928 17.9058 7.30206 18.4025 7.46762C19.9303 7.97688 20.6941 8.2315 21.1846 8.70637C21.7022 9.20752 22.0222 9.87821 22.086 10.5958C22.1465 11.2758 21.8638 12.0298 21.2983 13.5376L20.7786 14.9237C20.4978 15.6723 20.3575 16.0466 20.1144 16.3224C19.8996 16.5661 19.6288 16.7538 19.3252 16.8693C18.9816 17.0001 18.5818 17.0001 17.7823 17.0001H16.7553C16.4736 17.0001 16.3327 17.0001 16.1947 16.9808C16.0722 16.9636 15.9515 16.9351 15.8343 16.8957C15.7022 16.8513 15.5762 16.7883 15.3242 16.6623L14.8621 16.4312C13.8126 15.9064 13.2879 15.6441 12.7375 15.5408C12.25 15.4494 11.7498 15.4494 11.2623 15.5408C10.7119 15.6441 10.1872 15.9064 9.13774 16.4312L8.67557 16.6623C8.42358 16.7883 8.29759 16.8513 8.16554 16.8957C8.04827 16.9351 7.9276 16.9636 7.80506 16.9808C7.66709 17.0001 7.52622 17.0001 7.24449 17.0001H6.21751C5.41799 17.0001 5.01824 17.0001 4.67461 16.8693C4.37105 16.7538 4.10018 16.5661 3.88544 16.3224C3.64235 16.0466 3.50198 15.6723 3.22125 14.9237L2.70149 13.5376C2.13604 12.0298 1.85331 11.2758 1.9138 10.5958C1.97764 9.87821 2.29761 9.20752 2.81522 8.70637C3.30568 8.2315 4.06956 7.97688 5.59733 7.46762C6.09401 7.30206 6.34234 7.21928 6.59605 7.18066C6.86523 7.13968 7.13874 7.13553 7.40904 7.16834C7.6638 7.19926 7.91454 7.27448 8.416 7.42492L11.9999 8.50009Z" stroke="black" stroke-width="2" stroke-linecap="round" stroke-linejoin="round"/>
</svg>
