<svg width="25" height="25" viewBox="0 0 25 25" fill="none" xmlns="http://www.w3.org/2000/svg">
<path d="M9.96387 19.9639C9.96387 21.0684 8.62072 21.9639 6.96387 21.9639C5.30701 21.9639 3.96387 21.0684 3.96387 19.9639C3.96387 18.8593 5.30701 17.9639 6.96387 17.9639C8.62072 17.9639 9.96387 18.8593 9.96387 19.9639ZM9.96387 19.9639V5.96387L21.9639 3.96387V17.9639M21.9639 17.9639C21.9639 19.0684 20.6207 19.9639 18.9639 19.9639C17.307 19.9639 15.9639 19.0684 15.9639 17.9639C15.9639 16.8593 17.307 15.9639 18.9639 15.9639C20.6207 15.9639 21.9639 16.8593 21.9639 17.9639ZM9.96387 9.96387L21.9639 7.96387" stroke="black" stroke-width="2" stroke-linecap="round" stroke-linejoin="round"/>
</svg>
