<svg width="25" height="25" viewBox="0 0 25 25" fill="none" xmlns="http://www.w3.org/2000/svg">
<path d="M13.4639 7.85736V6.54047C13.4639 6.33313 13.4639 6.22946 13.4986 6.14124C13.5292 6.06335 13.5789 5.99439 13.6431 5.94069C13.7158 5.87988 13.8142 5.8471 14.0109 5.78153L18.4109 4.31486C18.7664 4.19636 18.9441 4.13711 19.0856 4.17263C19.2095 4.20373 19.3168 4.28104 19.3854 4.38871C19.4639 4.5117 19.4639 4.69907 19.4639 5.07381V8.38726C19.4639 8.5946 19.4639 8.69828 19.4292 8.78649C19.3985 8.86439 19.3488 8.93335 19.2846 8.98705C19.2119 9.04785 19.1136 9.08064 18.9168 9.14621L15.7831 10.1908M13.4639 13.4639V19.4639M13.4639 19.4639C13.4639 20.8446 11.8969 21.9639 9.96387 21.9639C8.03087 21.9639 6.46387 20.8446 6.46387 19.4639C6.46387 18.0832 8.03087 16.9639 9.96387 16.9639C11.8969 16.9639 13.4639 18.0832 13.4639 19.4639ZM3.96387 3.96387L21.9639 21.9639" stroke="black" stroke-width="2" stroke-linecap="round" stroke-linejoin="round"/>
</svg>
