<svg width="25" height="25" viewBox="0 0 25 25" fill="none" xmlns="http://www.w3.org/2000/svg">
<path d="M13.4639 9.85364V19.4636M13.4639 9.85364V6.54018C13.4639 6.33284 13.4639 6.22917 13.4986 6.14095C13.5292 6.06306 13.5789 5.9941 13.6431 5.9404C13.7158 5.87959 13.8142 5.84681 14.0109 5.78124L18.4109 4.31457C18.7664 4.19607 18.9441 4.13682 19.0856 4.17234C19.2095 4.20344 19.3168 4.28075 19.3854 4.38842C19.4639 4.51141 19.4639 4.69878 19.4639 5.07352V8.38697C19.4639 8.59432 19.4639 8.69799 19.4292 8.7862C19.3985 8.8641 19.3488 8.93306 19.2846 8.98676C19.2119 9.04756 19.1136 9.08035 18.9168 9.14592L14.5168 10.6126C14.1613 10.7311 13.9836 10.7903 13.8421 10.7548C13.7182 10.7237 13.611 10.6464 13.5423 10.5387C13.4639 10.4157 13.4639 10.2284 13.4639 9.85364ZM13.4639 19.4636C13.4639 20.8443 11.8969 21.9636 9.96387 21.9636C8.03087 21.9636 6.46387 20.8443 6.46387 19.4636C6.46387 18.0829 8.03087 16.9636 9.96387 16.9636C11.8969 16.9636 13.4639 18.0829 13.4639 19.4636Z" stroke="black" stroke-width="2" stroke-linecap="round" stroke-linejoin="round"/>
</svg>
