<svg width="24" height="24" viewBox="0 0 24 24" fill="none" xmlns="http://www.w3.org/2000/svg">
<path d="M11.5 10.4998L14.5 13.4998M21.4999 6.49974L12.4688 15.5309C11.6403 16.3594 10.2972 16.3594 9.46875 15.5309C8.64032 14.7025 8.64032 13.3594 9.46875 12.5309L18.4999 3.49974C19.3283 2.67133 20.6714 2.67131 21.4999 3.49968C22.3284 4.3281 22.3284 5.67129 21.4999 6.49974ZM10.3398 17.7498C10.3398 19.5447 8.88477 20.9998 7.08984 20.9998H2.5L2.7103 20.8946C3.74629 20.3767 4.26276 19.1912 3.93667 18.0798C3.87245 17.8609 3.83395 17.6333 3.85777 17.4064C4.02929 15.7729 5.41089 14.4998 7.08984 14.4998C8.88477 14.4998 10.3398 15.9549 10.3398 17.7498Z" stroke="black" stroke-width="2" stroke-linecap="round" stroke-linejoin="round"/>
</svg>
