<svg width="24" height="24" viewBox="0 0 24 24" fill="none" xmlns="http://www.w3.org/2000/svg">
<path d="M5.57118 14.5L9.46571 18.4141M18.9995 3.60975C17.4043 3.59505 16.6657 4.33233 16.4235 5.07743C16.2102 5.73354 16.405 7.07735 15.8958 8.0727C15.409 9.02443 14.1202 9.5617 12.657 9.60697M19.9999 7.6104L20.0099 7.61049M18.9999 15.96L19.0099 15.9601M6.99989 3.94926L7.00989 3.94936M18.9999 11.1094C17.4999 11.1094 16.4999 11.6094 15.5948 12.5447M10.2376 7.18796C10.9999 6.10991 11.4999 5.10991 11.0081 3.52734M3.53564 20.4645L7.07118 9.85791L14.1422 16.929L3.53564 20.4645Z" stroke="black" stroke-width="2" stroke-linecap="round" stroke-linejoin="round"/>
</svg>
