<svg width="24" height="24" viewBox="0 0 24 24" fill="none" xmlns="http://www.w3.org/2000/svg">
<path d="M11.8903 9.11001L6.52606 3.74572C6.13004 3.34971 5.93203 3.1517 5.7037 3.07751C5.50286 3.01225 5.28651 3.01225 5.08567 3.07751C4.85734 3.1517 4.65933 3.34971 4.26331 3.74572L3.69763 4.31141C3.30161 4.70743 3.1036 4.90543 3.02941 5.13376C2.96415 5.3346 2.96415 5.55095 3.02941 5.7518C3.1036 5.98012 3.30161 6.17814 3.69763 6.57415L9.06192 11.9384M14.7188 11.9384L20.0828 17.3025C20.4788 17.6985 20.6768 17.8965 20.751 18.1248C20.8163 18.3257 20.8163 18.542 20.751 18.7429C20.6768 18.9712 20.4788 19.1692 20.0828 19.5652L19.5171 20.1309C19.1211 20.5269 18.9231 20.7249 18.6948 20.7991C18.4939 20.8644 18.2776 20.8644 18.0767 20.7991C17.8484 20.7249 17.6504 20.5269 17.2544 20.1309L11.8903 14.7669M8.00024 6.99956L8.88946 6.10913M17.0002 15.9997L17.8945 15.1142M15.4998 5.50189L18.3282 8.33032M3 21.0016L3.04745 20.6695C3.21536 19.4941 3.29932 18.9064 3.49029 18.3578C3.65975 17.8709 3.89124 17.4079 4.17906 16.9802C4.50341 16.4982 4.92319 16.0785 5.76274 15.2389L17.4107 3.59091C18.1918 2.80987 19.4581 2.80986 20.2392 3.59091C21.0202 4.37196 21.0202 5.63829 20.2392 6.41934L8.37744 18.2811C7.61579 19.0427 7.23497 19.4235 6.8012 19.7264C6.41618 19.9952 6.00093 20.2179 5.56398 20.3899C5.07171 20.5836 4.54375 20.6902 3.48793 20.9032L3 21.0016Z" stroke="black" stroke-width="2" stroke-linecap="round" stroke-linejoin="round"/>
</svg>
