<svg width="24" height="24" viewBox="0 0 24 24" fill="none" xmlns="http://www.w3.org/2000/svg">
<path d="M10.1192 4.09462C10.7952 3.60348 11.1332 3.35791 11.5027 3.26303C11.829 3.17925 12.1712 3.17925 12.4975 3.26303C12.867 3.35791 13.205 3.60348 13.881 4.09462L19.6298 8.27133C20.3058 8.76247 20.6437 9.00804 20.8482 9.33017C21.0287 9.6146 21.1344 9.94003 21.1556 10.2762C21.1795 10.657 21.0504 11.0543 20.7922 11.849L18.5964 18.6071C18.3382 19.4018 18.2091 19.7991 17.9659 20.0931C17.7512 20.3526 17.4743 20.5538 17.1611 20.6778C16.8064 20.8182 16.3886 20.8182 15.553 20.8182H8.44718C7.6116 20.8182 7.19381 20.8182 6.83908 20.6778C6.52586 20.5538 6.24904 20.3526 6.0343 20.0931C5.79111 19.7991 5.66201 19.4018 5.4038 18.6071L3.20798 11.849C2.94977 11.0543 2.82066 10.657 2.84462 10.2762C2.86577 9.94003 2.97151 9.6146 3.15202 9.33017C3.35645 9.00804 3.69445 8.76247 4.37045 8.27133L10.1192 4.09462Z" stroke="black" stroke-width="2" stroke-linejoin="round"/>
</svg>
