<svg width="25" height="25" viewBox="0 0 25 25" fill="none" xmlns="http://www.w3.org/2000/svg">
<path d="M3.96387 14.9639V9.96387C3.96387 6.65016 6.65016 3.96387 9.96387 3.96387H10.1992C13.3829 3.96387 15.9639 6.54481 15.9639 9.72857C15.9639 10.4108 16.5169 10.9639 17.1992 10.9639H18.9639C20.6207 10.9639 21.9639 12.307 21.9639 13.9639V17.1639C21.9639 18.844 21.9639 19.6841 21.6369 20.3258C21.3493 20.8903 20.8903 21.3493 20.3258 21.6369C19.6841 21.9639 18.844 21.9639 17.1639 21.9639H8.76387C7.08371 21.9639 6.24363 21.9639 5.6019 21.6369C5.03741 21.3493 4.57847 20.8903 4.29085 20.3258C3.96387 19.6841 3.96387 18.844 3.96387 17.1639V14.9639ZM3.96387 14.9639H21.9639M7.96387 14.9639V17.9639M10.9639 14.9639V17.9639M13.9639 14.9639V17.9639M17.9639 14.9639V17.9639" stroke="black" stroke-width="2" stroke-linecap="round" stroke-linejoin="round"/>
</svg>
