<svg width="25" height="25" viewBox="0 0 25 25" fill="none" xmlns="http://www.w3.org/2000/svg">
<path d="M19.9639 4.96387H9.96387C9.0339 4.96387 8.56891 4.96387 8.18741 5.06609C7.15213 5.34349 6.34349 6.15213 6.06609 7.18741C5.96387 7.56891 5.96387 8.05308 5.96387 8.98306M5.96387 8.98306C6.27815 8.96387 6.66559 8.96387 7.16387 8.96387H18.7639C19.884 8.96387 20.444 8.96387 20.8718 9.18185C21.2482 9.3736 21.5541 9.67956 21.7459 10.0559C21.9639 10.4837 21.9639 11.0438 21.9639 12.1639V17.7639C21.9639 18.884 21.9639 19.444 21.7459 19.8718C21.5541 20.2482 21.2482 20.5541 20.8718 20.7459C20.444 20.9639 19.884 20.9639 18.7639 20.9639H7.16387C6.04376 20.9639 5.48371 20.9639 5.05589 20.7459C4.67956 20.5541 4.3736 20.2482 4.18185 19.8718C3.96387 19.444 3.96387 18.884 3.96387 17.7639V12.1639C3.96387 11.0438 3.96387 10.4837 4.18185 10.0559C4.3736 9.67956 4.67956 9.3736 5.05589 9.18185C5.29339 9.06084 5.57165 9.007 5.96387 8.98306ZM14.9639 12.9639H18.9639M14.9639 16.9639H18.9639M10.9639 14.9639C10.9639 16.0684 10.0684 16.9639 8.96387 16.9639C7.8593 16.9639 6.96387 16.0684 6.96387 14.9639C6.96387 13.8593 7.8593 12.9639 8.96387 12.9639C10.0684 12.9639 10.9639 13.8593 10.9639 14.9639Z" stroke="black" stroke-width="2" stroke-linecap="round" stroke-linejoin="round"/>
</svg>
