<svg width="24" height="24" viewBox="0 0 24 24" fill="none" xmlns="http://www.w3.org/2000/svg">
<path d="M16 6.00032V4.28464C16 3.51612 16 3.13186 15.8387 2.88346C15.6976 2.66612 15.4776 2.51204 15.2252 2.4537C14.9366 2.38702 14.5755 2.51834 13.8532 2.78097L6.57982 5.42584C6.01064 5.63282 5.72605 5.7363 5.51615 5.9187C5.33073 6.0798 5.18772 6.28398 5.09968 6.51329C5 6.77289 5 7.07571 5 7.68135V12.0003M9 17.0003H15M9 13.5003H15M9 10.0003H15M8.2 21.0003H15.8C16.9201 21.0003 17.4802 21.0003 17.908 20.7823C18.2843 20.5906 18.5903 20.2846 18.782 19.9083C19 19.4805 19 18.9204 19 17.8003V9.20032C19 8.08022 19 7.52016 18.782 7.09234C18.5903 6.71602 18.2843 6.41006 17.908 6.21831C17.4802 6.00032 16.9201 6.00032 15.8 6.00032H8.2C7.0799 6.00032 6.51984 6.00032 6.09202 6.21831C5.71569 6.41006 5.40973 6.71602 5.21799 7.09234C5 7.52016 5 8.08022 5 9.20032V17.8003C5 18.9204 5 19.4805 5.21799 19.9083C5.40973 20.2846 5.71569 20.5906 6.09202 20.7823C6.51984 21.0003 7.07989 21.0003 8.2 21.0003Z" stroke="black" stroke-width="2" stroke-linecap="round" stroke-linejoin="round"/>
</svg>
