<svg width="24" height="24" viewBox="0 0 24 24" fill="none" xmlns="http://www.w3.org/2000/svg">
<path d="M7.6302 10.0002C6.65914 10.8048 5.10543 13.8001 6.65914 15.3449C7.81902 16.4981 9.59225 15.9295 10.888 15.1655C11.3833 14.8734 11.6309 14.7274 11.7885 14.6933C11.9737 14.6532 12.0263 14.6532 12.2115 14.6933C12.3691 14.7274 12.6167 14.8734 13.112 15.1655C14.4077 15.9295 16.181 16.4981 17.3409 15.3449C18.8946 13.8001 17.3409 10.8048 16.3698 10.0002M7.4985 10.0002C4.17378 11.6002 0.265086 16.2402 11.9994 22.0002M16.5013 10.0002C19.8261 11.6002 23.7351 16.2402 12.0008 22.0002M7 7.00027C7 5.00032 11 -1.99976 19 4.00025C14.9999 2.50027 14.9985 5.00029 16.9995 7.00029M10 12.5002H10.01M14 12.5002H14.01M11 18.0002C11.103 18.0518 11.1545 18.0775 11.2048 18.0993C11.7121 18.3191 12.2879 18.3191 12.7952 18.0993C12.8455 18.0775 12.897 18.0518 13 18.0002M6.5 10.0002H17.5C18.3284 10.0002 19 9.32867 19 8.50024C19 7.67182 18.3284 7.00024 17.5 7.00024H6.5C5.67157 7.00024 5 7.67182 5 8.50024C5 9.32867 5.67157 10.0002 6.5 10.0002ZM20 4.00024C20 4.55253 19.5523 5.00024 19 5.00024C18.4477 5.00024 18 4.55253 18 4.00024C18 3.44796 18.4477 3.00024 19 3.00024C19.5523 3.00024 20 3.44796 20 4.00024Z" stroke="black" stroke-width="2" stroke-linecap="round" stroke-linejoin="round"/>
</svg>
