<svg width="25" height="25" viewBox="0 0 25 25" fill="none" xmlns="http://www.w3.org/2000/svg">
<path d="M3.96387 16.064C4.92476 16.2599 5.80681 16.7341 6.50025 17.4276C7.19369 18.121 7.6679 19.0031 7.86387 19.964M3.96387 19.9639H3.97387M3.96387 12.0137C5.99466 12.2395 7.88814 13.1497 9.33298 14.5946C10.7778 16.0394 11.688 17.9329 11.9139 19.9637M15.9639 19.9639H18.7639C19.884 19.9639 20.444 19.9639 20.8718 19.7459C21.2482 19.5541 21.5541 19.2482 21.7459 18.8718C21.9639 18.444 21.9639 17.884 21.9639 16.7639V9.16387C21.9639 8.04376 21.9639 7.48371 21.7459 7.05589C21.5541 6.67956 21.2482 6.3736 20.8718 6.18185C20.444 5.96387 19.884 5.96387 18.7639 5.96387H5.96387C4.8593 5.96387 3.96387 6.8593 3.96387 7.96387" stroke="black" stroke-width="2" stroke-linecap="round" stroke-linejoin="round"/>
</svg>
