<svg width="24" height="24" viewBox="0 0 24 24" fill="none" xmlns="http://www.w3.org/2000/svg">
<path d="M11.9996 12.8001C12.9996 11.8001 13.9996 11.4047 13.9996 10.3001C13.9996 9.19552 13.1042 8.30009 11.9996 8.30009C11.0677 8.30009 10.2846 8.93748 10.0626 9.80009M12.0001 15.8001H12.0101M19.4687 14.5315L20.8687 13.1315C21.2647 12.7354 21.4627 12.5374 21.5369 12.3091C21.6022 12.1083 21.6022 11.8919 21.5369 11.6911C21.4627 11.4627 21.2647 11.2647 20.8687 10.8687L19.4687 9.46872C19.2958 9.29577 19.2093 9.20929 19.1475 9.10838C19.0926 9.01891 19.0522 8.92136 19.0277 8.81932C19.0001 8.70424 19.0001 8.58194 19.0001 8.33735V6.60009C19.0001 6.04004 19.0001 5.76001 18.8911 5.5461C18.7952 5.35794 18.6422 5.20496 18.4541 5.10909C18.2402 5.00009 17.9601 5.00009 17.4001 5.00009H15.6628C15.4182 5.00009 15.2959 5.00009 15.1809 4.97246C15.0788 4.94797 14.9813 4.90756 14.8918 4.85273C14.7909 4.79089 14.7044 4.70442 14.5315 4.53146L13.1315 3.13146C12.7354 2.73545 12.5374 2.53744 12.3091 2.46325C12.1083 2.39799 11.8919 2.39799 11.6911 2.46325C11.4627 2.53744 11.2647 2.73545 10.8687 3.13146L9.46872 4.53146C9.29577 4.70442 9.20929 4.79089 9.10838 4.85273C9.01891 4.90756 8.92136 4.94797 8.81932 4.97246C8.70424 5.00009 8.58194 5.00009 8.33735 5.00009H6.60009C6.04004 5.00009 5.76001 5.00009 5.5461 5.10909C5.35794 5.20496 5.20496 5.35794 5.10909 5.5461C5.00009 5.76001 5.00009 6.04004 5.00009 6.60009V8.33735C5.00009 8.58194 5.00009 8.70424 4.97246 8.81932C4.94797 8.92136 4.90756 9.01891 4.85273 9.10838C4.79089 9.20929 4.70442 9.29577 4.53146 9.46872L3.13146 10.8687C2.73545 11.2647 2.53744 11.4627 2.46325 11.6911C2.39799 11.8919 2.39799 12.1083 2.46325 12.3091C2.53744 12.5374 2.73545 12.7354 3.13146 13.1315L4.53146 14.5315C4.70442 14.7044 4.79089 14.7909 4.85273 14.8918C4.90756 14.9813 4.94797 15.0788 4.97246 15.1809C5.00009 15.2959 5.00009 15.4182 5.00009 15.6628V17.4001C5.00009 17.9601 5.00009 18.2402 5.10909 18.4541C5.20496 18.6422 5.35794 18.7952 5.5461 18.8911C5.76001 19.0001 6.04004 19.0001 6.60009 19.0001H8.33735C8.58194 19.0001 8.70424 19.0001 8.81932 19.0277C8.92136 19.0522 9.01891 19.0926 9.10838 19.1475C9.20929 19.2093 9.29577 19.2958 9.46872 19.4687L10.8687 20.8687C11.2647 21.2647 11.4627 21.4627 11.6911 21.5369C11.8919 21.6022 12.1083 21.6022 12.3091 21.5369C12.5374 21.4627 12.7354 21.2647 13.1315 20.8687L14.5315 19.4687C14.7044 19.2958 14.7909 19.2093 14.8918 19.1475C14.9813 19.0926 15.0788 19.0522 15.1809 19.0277C15.2959 19.0001 15.4182 19.0001 15.6628 19.0001H17.4001C17.9601 19.0001 18.2402 19.0001 18.4541 18.8911C18.6422 18.7952 18.7952 18.6422 18.8911 18.4541C19.0001 18.2402 19.0001 17.9601 19.0001 17.4001V15.6628C19.0001 15.4182 19.0001 15.2959 19.0277 15.1809C19.0522 15.0788 19.0926 14.9813 19.1475 14.8918C19.2093 14.7909 19.2958 14.7044 19.4687 14.5315Z" stroke="black" stroke-width="2" stroke-linecap="round"/>
</svg>
