<svg width="24" height="24" viewBox="0 0 24 24" fill="none" xmlns="http://www.w3.org/2000/svg">
<path d="M11.3586 20.6833C11.5639 20.7903 11.6666 20.8438 11.809 20.8715C11.92 20.8931 12.08 20.8931 12.191 20.8715C12.3334 20.8438 12.4361 20.7903 12.6414 20.6833C14.54 19.6941 20 16.4615 20 12.0004V8.21796C20 7.41845 20 7.01869 19.8692 6.67506C19.7537 6.3715 19.566 6.10064 19.3223 5.88589C19.0465 5.6428 18.6722 5.50243 17.9236 5.22171L12.5618 3.21103C12.3539 3.13307 12.25 3.09409 12.143 3.07864C12.0482 3.06493 11.9518 3.06493 11.857 3.07864C11.75 3.09409 11.6461 3.13307 11.4382 3.21103L6.0764 5.22171C5.3278 5.50243 4.9535 5.6428 4.67766 5.88589C4.43398 6.10064 4.24627 6.3715 4.13076 6.67506C4 7.01869 4 7.41845 4 8.21796V12.0004C4 16.4615 9.45996 19.6941 11.3586 20.6833Z" stroke="black" stroke-width="2" stroke-linecap="round" stroke-linejoin="round"/>
</svg>
