<svg width="24" height="24" viewBox="0 0 24 24" fill="none" xmlns="http://www.w3.org/2000/svg">
<path d="M14 9.00027C13.5 8.87625 12.6851 8.87169 12 8.87625M12 8.87625C11.7709 8.87778 11.9094 8.86804 11.6 8.87625C10.7926 8.90144 10.0016 9.23701 10 10.1878C9.99825 11.2006 11 11.5003 12 11.5003C13 11.5003 14 11.7315 14 12.8128C14 13.6254 13.1925 13.9814 12.1861 14.0993C11.3861 14.0993 11 14.1253 10 14.0003M12 8.87625L12 7.50036M12 14.0997V15.5004M20 12.0004C20 16.4615 14.54 19.6941 12.6414 20.6833C12.4361 20.7903 12.3334 20.8438 12.191 20.8715C12.08 20.8931 11.92 20.8931 11.809 20.8715C11.6666 20.8438 11.5639 20.7903 11.3586 20.6833C9.45996 19.6941 4 16.4615 4 12.0004V8.21796C4 7.41845 4 7.01869 4.13076 6.67506C4.24627 6.3715 4.43398 6.10064 4.67766 5.88589C4.9535 5.6428 5.3278 5.50243 6.0764 5.22171L11.4382 3.21103C11.6461 3.13307 11.75 3.09409 11.857 3.07864C11.9518 3.06493 12.0482 3.06493 12.143 3.07864C12.25 3.09409 12.3539 3.13307 12.5618 3.21103L17.9236 5.22171C18.6722 5.50243 19.0465 5.6428 19.3223 5.88589C19.566 6.10064 19.7537 6.3715 19.8692 6.67506C20 7.01869 20 7.41845 20 8.21796V12.0004Z" stroke="black" stroke-width="2" stroke-linecap="round" stroke-linejoin="round"/>
</svg>
