<svg width="25" height="25" viewBox="0 0 25 25" fill="none" xmlns="http://www.w3.org/2000/svg">
<path d="M20.4639 12.9639C19.0832 12.9639 17.9639 11.8446 17.9639 10.4639C17.9639 9.08316 19.0832 7.96387 20.4639 7.96387M20.4639 12.9639C21.8446 12.9639 22.9639 11.8446 22.9639 10.4639C22.9639 9.08316 21.8446 7.96387 20.4639 7.96387M20.4639 12.9639V21.9639M20.4639 7.96387V3.96387M12.9639 19.9637C11.5832 19.9637 10.4639 18.8444 10.4639 17.4637C10.4639 16.083 11.5832 14.9637 12.9639 14.9637M12.9639 19.9637C14.3446 19.9637 15.4639 18.8444 15.4639 17.4637C15.4639 16.083 14.3446 14.9637 12.9639 14.9637M12.9639 19.9637V21.9635M12.9639 14.9637V3.96399M5.46387 10.9639C4.08316 10.9639 2.96387 9.84458 2.96387 8.46387C2.96387 7.08316 4.08316 5.96387 5.46387 5.96387M5.46387 10.9639C6.84458 10.9639 7.96387 9.84458 7.96387 8.46387C7.96387 7.08316 6.84458 5.96387 5.46387 5.96387M5.46387 10.9639V21.9639M5.46387 5.96387V3.96387" stroke="black" stroke-width="2" stroke-linecap="round" stroke-linejoin="round"/>
</svg>
