<svg width="25" height="25" viewBox="0 0 25 25" fill="none" xmlns="http://www.w3.org/2000/svg">
<path d="M12.9639 6.46387C12.9639 7.84458 11.8446 8.96387 10.4639 8.96387C9.08316 8.96387 7.96387 7.84458 7.96387 6.46387M12.9639 6.46387C12.9639 5.08316 11.8446 3.96387 10.4639 3.96387C9.08316 3.96387 7.96387 5.08316 7.96387 6.46387M12.9639 6.46387H21.9639M7.96387 6.46387H3.96387M19.9639 12.9639C19.9639 14.3446 18.8446 15.4639 17.4639 15.4639C16.0832 15.4639 14.9639 14.3446 14.9639 12.9639M19.9639 12.9639C19.9639 11.5832 18.8446 10.4639 17.4639 10.4639C16.0832 10.4639 14.9639 11.5832 14.9639 12.9639M19.9639 12.9639H21.9639M14.9639 12.9639H3.96387M10.9639 19.4639C10.9639 20.8446 9.84458 21.9639 8.46387 21.9639C7.08316 21.9639 5.96387 20.8446 5.96387 19.4639M10.9639 19.4639C10.9639 18.0832 9.84458 16.9639 8.46387 16.9639C7.08316 16.9639 5.96387 18.0832 5.96387 19.4639M10.9639 19.4639H21.9639M5.96387 19.4639H3.96387" stroke="black" stroke-width="2" stroke-linecap="round" stroke-linejoin="round"/>
</svg>
