<svg width="25" height="25" viewBox="0 0 25 25" fill="none" xmlns="http://www.w3.org/2000/svg">
<path d="M8.96387 9.46387C8.96387 10.8446 7.84458 11.9639 6.46387 11.9639C5.08316 11.9639 3.96387 10.8446 3.96387 9.46387C3.96387 8.08316 5.08316 6.96387 6.46387 6.96387C7.84458 6.96387 8.96387 8.08316 8.96387 9.46387ZM8.96387 9.46387H21.9639M16.9639 16.4639C16.9639 17.8446 18.0832 18.9639 19.4639 18.9639C20.8446 18.9639 21.9639 17.8446 21.9639 16.4639C21.9639 15.0832 20.8446 13.9639 19.4639 13.9639C18.0832 13.9639 16.9639 15.0832 16.9639 16.4639ZM16.9639 16.4639H3.96387" stroke="black" stroke-width="2" stroke-linecap="round" stroke-linejoin="round"/>
</svg>
