<svg width="25" height="25" viewBox="0 0 25 25" fill="none" xmlns="http://www.w3.org/2000/svg">
<path d="M18.9639 17.9639V20.3639C18.9639 20.9239 18.9639 21.2039 18.8549 21.4179C18.759 21.606 18.606 21.759 18.4179 21.8549C18.2039 21.9639 17.9239 21.9639 17.3639 21.9639H8.56387C8.00381 21.9639 7.72379 21.9639 7.50988 21.8549C7.32171 21.759 7.16873 21.606 7.07286 21.4179C6.96387 21.2039 6.96387 20.9239 6.96387 20.3639V17.9639M12.9639 10.9639H12.9739M16.9639 10.9639C16.9639 13.173 15.173 14.9639 12.9639 14.9639C10.7547 14.9639 8.96387 13.173 8.96387 10.9639C8.96387 8.75473 10.7547 6.96387 12.9639 6.96387C15.173 6.96387 16.9639 8.75473 16.9639 10.9639ZM13.4639 10.9639C13.4639 11.24 13.24 11.4639 12.9639 11.4639C12.6877 11.4639 12.4639 11.24 12.4639 10.9639C12.4639 10.6877 12.6877 10.4639 12.9639 10.4639C13.24 10.4639 13.4639 10.6877 13.4639 10.9639ZM7.16387 17.9639H18.7639C19.884 17.9639 20.444 17.9639 20.8718 17.7459C21.2482 17.5541 21.5541 17.2482 21.7459 16.8718C21.9639 16.444 21.9639 15.884 21.9639 14.7639V7.16387C21.9639 6.04376 21.9639 5.48371 21.7459 5.05589C21.5541 4.67956 21.2482 4.3736 20.8718 4.18185C20.444 3.96387 19.884 3.96387 18.7639 3.96387H7.16387C6.04376 3.96387 5.48371 3.96387 5.05589 4.18185C4.67956 4.3736 4.3736 4.67956 4.18185 5.05589C3.96387 5.48371 3.96387 6.04376 3.96387 7.16387V14.7639C3.96387 15.884 3.96387 16.444 4.18185 16.8718C4.3736 17.2482 4.67956 17.5541 5.05589 17.7459C5.48371 17.9639 6.04376 17.9639 7.16387 17.9639Z" stroke="black" stroke-width="2" stroke-linecap="round" stroke-linejoin="round"/>
</svg>
