<svg width="25" height="25" viewBox="0 0 25 25" fill="none" xmlns="http://www.w3.org/2000/svg">
<path d="M12.9639 7.96387H12.9739M13.4639 7.96387C13.4639 8.24001 13.24 8.46387 12.9639 8.46387C12.6877 8.46387 12.4639 8.24001 12.4639 7.96387C12.4639 7.68772 12.6877 7.46387 12.9639 7.46387C13.24 7.46387 13.4639 7.68772 13.4639 7.96387ZM15.9639 14.9639C15.9639 16.6207 14.6207 17.9639 12.9639 17.9639C11.307 17.9639 9.96387 16.6207 9.96387 14.9639C9.96387 13.307 11.307 11.9639 12.9639 11.9639C14.6207 11.9639 15.9639 13.307 15.9639 14.9639ZM9.16387 21.9639H16.7639C17.884 21.9639 18.444 21.9639 18.8718 21.7459C19.2482 21.5541 19.5541 21.2482 19.7459 20.8718C19.9639 20.444 19.9639 19.884 19.9639 18.7639V7.16387C19.9639 6.04376 19.9639 5.48371 19.7459 5.05589C19.5541 4.67956 19.2482 4.3736 18.8718 4.18185C18.444 3.96387 17.884 3.96387 16.7639 3.96387H9.16387C8.04376 3.96387 7.48371 3.96387 7.05589 4.18185C6.67956 4.3736 6.3736 4.67956 6.18185 5.05589C5.96387 5.48371 5.96387 6.04376 5.96387 7.16387V18.7639C5.96387 19.884 5.96387 20.444 6.18185 20.8718C6.3736 21.2482 6.67956 21.5541 7.05589 21.7459C7.48371 21.9639 8.04376 21.9639 9.16387 21.9639Z" stroke="black" stroke-width="2" stroke-linecap="round"/>
</svg>
