<svg width="25" height="25" viewBox="0 0 25 25" fill="none" xmlns="http://www.w3.org/2000/svg">
<path d="M12.9639 12.9639H12.9739M17.9639 7.96387H17.9739M7.96387 7.96387H7.97387M17.9639 17.9639H17.9739M7.96387 17.9639H7.97387M13.4639 12.9639C13.4639 13.24 13.24 13.4639 12.9639 13.4639C12.6877 13.4639 12.4639 13.24 12.4639 12.9639C12.4639 12.6877 12.6877 12.4639 12.9639 12.4639C13.24 12.4639 13.4639 12.6877 13.4639 12.9639ZM16.9639 12.9639C16.9639 15.173 15.173 16.9639 12.9639 16.9639C10.7547 16.9639 8.96387 15.173 8.96387 12.9639C8.96387 10.7547 10.7547 8.96387 12.9639 8.96387C15.173 8.96387 16.9639 10.7547 16.9639 12.9639ZM8.16387 4.96387H17.7639C18.884 4.96387 19.444 4.96387 19.8718 5.18185C20.2482 5.3736 20.5541 5.67956 20.7459 6.05589C20.9639 6.48371 20.9639 7.04376 20.9639 8.16387V17.7639C20.9639 18.884 20.9639 19.444 20.7459 19.8718C20.5541 20.2482 20.2482 20.5541 19.8718 20.7459C19.444 20.9639 18.884 20.9639 17.7639 20.9639H8.16387C7.04376 20.9639 6.48371 20.9639 6.05589 20.7459C5.67956 20.5541 5.3736 20.2482 5.18185 19.8718C4.96387 19.444 4.96387 18.884 4.96387 17.7639V8.16387C4.96387 7.04376 4.96387 6.48371 5.18185 6.05589C5.3736 5.67956 5.67956 5.3736 6.05589 5.18185C6.48371 4.96387 7.04376 4.96387 8.16387 4.96387Z" stroke="black" stroke-width="2" stroke-linecap="round" stroke-linejoin="round"/>
</svg>
