<svg width="24" height="24" viewBox="0 0 24 24" fill="none" xmlns="http://www.w3.org/2000/svg">
<path d="M20 10.999V7.19902C20 6.07892 20 5.51887 19.782 5.09104C19.5903 4.71472 19.2843 4.40876 18.908 4.21701C18.4802 3.99902 17.9201 3.99902 16.8 3.99902H7.2C6.0799 3.99902 5.51984 3.99902 5.09202 4.21701C4.71569 4.40876 4.40973 4.71472 4.21799 5.09104C4 5.51887 4 6.07892 4 7.19902V16.799C4 17.9191 4 18.4792 4.21799 18.907C4.40973 19.2833 4.71569 19.5893 5.09202 19.781C5.51984 19.999 6.0799 19.999 7.2 19.999H11M9.12109 12.9997H14.8823M8 15.9997L10.2708 9.75501C10.8037 8.28953 11.0701 7.55678 11.46 7.34944C11.7976 7.16987 12.2024 7.16987 12.54 7.34944C12.9299 7.55678 13.1963 8.28953 13.7292 9.75502L14.9091 12.9997M20 18.0035V16.9997C20 15.8951 19.1046 14.9997 18 14.9997C16.8954 14.9997 16 15.8951 16 16.9997V18.0035M16.5 20.9997H19.5C19.9659 20.9997 20.1989 20.9997 20.3827 20.9235C20.6277 20.822 20.8224 20.6274 20.9239 20.3823C21 20.1986 21 19.9656 21 19.4997C21 19.0337 21 18.8007 20.9239 18.617C20.8224 18.3719 20.6277 18.1773 20.3827 18.0758C20.1989 17.9997 19.9659 17.9997 19.5 17.9997H16.5C16.0341 17.9997 15.8011 17.9997 15.6173 18.0758C15.3723 18.1773 15.1776 18.3719 15.0761 18.617C15 18.8007 15 19.0337 15 19.4997C15 19.9656 15 20.1986 15.0761 20.3823C15.1776 20.6274 15.3723 20.822 15.6173 20.9235C15.8011 20.9997 16.0341 20.9997 16.5 20.9997Z" stroke="black" stroke-width="2" stroke-linecap="round" stroke-linejoin="round"/>
</svg>
