<svg width="25" height="25" viewBox="0 0 25 25" fill="none" xmlns="http://www.w3.org/2000/svg">
<path d="M7.96387 9.96387H11.9639M13.9639 15.9639H17.9639M9.96387 7.96387V17.9639M15.9639 7.96387V17.9639M8.16387 20.9639H17.7639C18.884 20.9639 19.444 20.9639 19.8718 20.7459C20.2482 20.5541 20.5541 20.2482 20.7459 19.8718C20.9639 19.444 20.9639 18.884 20.9639 17.7639V8.16387C20.9639 7.04376 20.9639 6.48371 20.7459 6.05589C20.5541 5.67956 20.2482 5.3736 19.8718 5.18185C19.444 4.96387 18.884 4.96387 17.7639 4.96387H8.16387C7.04376 4.96387 6.48371 4.96387 6.05589 5.18185C5.67956 5.3736 5.3736 5.67956 5.18185 6.05589C4.96387 6.48371 4.96387 7.04376 4.96387 8.16387V17.7639C4.96387 18.884 4.96387 19.444 5.18185 19.8718C5.3736 20.2482 5.67956 20.5541 6.05589 20.7459C6.48371 20.9639 7.04376 20.9639 8.16387 20.9639Z" stroke="black" stroke-width="2" stroke-linecap="round" stroke-linejoin="round"/>
</svg>
