<svg width="25" height="25" viewBox="0 0 25 25" fill="none" xmlns="http://www.w3.org/2000/svg">
<path d="M9.26884 20.3349L12.9637 17.7638L12.9637 5.4114V5.41139C12.9637 5.14465 12.9637 5.01127 12.9303 4.98145C12.9016 4.95585 12.8608 4.94896 12.8253 4.96372C12.7839 4.98092 12.7401 5.10691 12.6526 5.35887L10.9129 10.3637C10.847 10.5532 10.814 10.648 10.7547 10.7186C10.7023 10.7809 10.6354 10.8295 10.5599 10.8601C10.4744 10.8948 10.3741 10.8968 10.1735 10.9009L6.22966 10.9813C5.5248 10.9956 5.17238 11.0028 5.03173 11.1371C4.91 11.2532 4.85489 11.4229 4.88507 11.5884C4.91995 11.7797 5.20084 11.9927 5.76264 12.4186L8.90605 14.8018C9.06594 14.923 9.14589 14.9836 9.19466 15.0618C9.23775 15.131 9.26329 15.2096 9.26907 15.2909C9.27561 15.3828 9.24656 15.4789 9.18846 15.6709L8.04617 19.4466C7.84202 20.1214 7.73995 20.4588 7.82416 20.634C7.89705 20.7857 8.04135 20.8905 8.20812 20.913C8.40082 20.9389 8.69016 20.7376 9.26884 20.3349Z" stroke="black" stroke-width="2" stroke-linecap="round" stroke-linejoin="round"/>
</svg>
