<svg width="24" height="24" viewBox="0 0 24 24" fill="none" xmlns="http://www.w3.org/2000/svg">
<path d="M11.3184 3.61159C11.544 3.24379 11.6568 3.0599 11.8018 2.99715C11.9285 2.94236 12.0722 2.94236 12.1988 2.99715C12.3439 3.0599 12.4567 3.24379 12.6823 3.61158L14.6672 6.84789C14.7523 6.98658 14.7948 7.05592 14.8529 7.10634C14.9042 7.15097 14.9641 7.18465 15.0289 7.20533C15.1021 7.22869 15.1835 7.229 15.3462 7.22961L19.2513 7.24439C19.7127 7.24614 19.9434 7.24701 20.0751 7.3443C20.1898 7.42913 20.2629 7.55897 20.2758 7.7011C20.2906 7.8641 20.1716 8.06176 19.9336 8.45707L18.0488 11.587C17.9585 11.7371 17.9133 11.8121 17.8957 11.8922C17.8801 11.963 17.8801 12.0364 17.8957 12.1073C17.9133 12.1874 17.9585 12.2624 18.0488 12.4124L19.9336 15.5424C20.1716 15.9377 20.2906 16.1354 20.2758 16.2984C20.2629 16.4405 20.1898 16.5703 20.0751 16.6552C19.9434 16.7524 19.7127 16.7533 19.2513 16.7551L15.3462 16.7698C15.1835 16.7705 15.1021 16.7708 15.0289 16.7941C14.9641 16.8148 14.9042 16.8485 14.8529 16.8931C14.7948 16.9435 14.7523 17.0129 14.6672 17.1516L12.6823 20.3879C12.4567 20.7557 12.3439 20.9396 12.1988 21.0023C12.0722 21.0571 11.9285 21.0571 11.8018 21.0023C11.6568 20.9396 11.544 20.7557 11.3184 20.3879L9.33344 17.1516C9.24838 17.0129 9.20584 16.9435 9.14784 16.8931C9.0965 16.8485 9.03659 16.8148 8.97179 16.7941C8.89856 16.7708 8.81722 16.7705 8.65452 16.7698L4.74942 16.7551C4.28797 16.7533 4.05725 16.7524 3.92562 16.6552C3.81085 16.5703 3.73779 16.4405 3.72487 16.2984C3.71004 16.1354 3.82906 15.9377 4.0671 15.5424L5.95184 12.4124C6.04218 12.2624 6.08734 12.1874 6.10499 12.1073C6.1206 12.0364 6.1206 11.963 6.10499 11.8922C6.08734 11.8121 6.04218 11.7371 5.95184 11.587L4.0671 8.45707C3.82906 8.06176 3.71004 7.8641 3.72487 7.7011C3.73779 7.55897 3.81085 7.42913 3.92562 7.3443C4.05725 7.24701 4.28797 7.24614 4.74942 7.24439L8.65452 7.22961C8.81722 7.229 8.89856 7.22869 8.97179 7.20533C9.03659 7.18465 9.0965 7.15097 9.14784 7.10634C9.20584 7.05592 9.24838 6.98658 9.33344 6.84789L11.3184 3.61159Z" stroke="black" stroke-width="2" stroke-linecap="round" stroke-linejoin="round"/>
</svg>
