<svg width="25" height="25" viewBox="0 0 25 25" fill="none" xmlns="http://www.w3.org/2000/svg">
<path d="M12.2082 5.13738C12.4396 4.47146 12.5554 4.13851 12.7265 4.04623C12.8746 3.96636 13.053 3.96636 13.2011 4.04623C13.3722 4.13851 13.488 4.47146 13.7195 5.13738L15.2497 9.53977C15.3156 9.7293 15.3485 9.82406 15.4079 9.89463C15.4603 9.95697 15.5272 10.0056 15.6027 10.0362C15.6882 10.0708 15.7885 10.0729 15.9891 10.0769L20.6489 10.1719C21.3537 10.1863 21.7062 10.1934 21.8468 10.3277C21.9685 10.4439 22.0236 10.6135 21.9935 10.7791C21.9586 10.9703 21.6777 11.1833 21.1159 11.6092L17.4019 14.425C17.242 14.5462 17.162 14.6069 17.1132 14.6851C17.0701 14.7542 17.0446 14.8329 17.0388 14.9141C17.0323 15.0061 17.0613 15.1021 17.1194 15.2942L18.4691 19.7553C18.6732 20.4301 18.7753 20.7674 18.6911 20.9427C18.6182 21.0944 18.4739 21.1992 18.3071 21.2217C18.1144 21.2476 17.8251 21.0463 17.2464 20.6436L13.4207 17.9814C13.256 17.8668 13.1737 17.8095 13.0842 17.7873C13.0051 17.7677 12.9225 17.7677 12.8434 17.7873C12.7539 17.8095 12.6716 17.8668 12.5069 17.9814L8.68118 20.6436C8.1025 21.0463 7.81316 21.2476 7.62046 21.2217C7.45369 21.1992 7.3094 21.0944 7.23651 20.9427C7.15229 20.7674 7.25436 20.4301 7.45852 19.7553L8.80816 15.2942C8.86627 15.1021 8.89532 15.0061 8.88878 14.9141C8.883 14.8329 8.85746 14.7542 8.81437 14.6851C8.76559 14.6069 8.68565 14.5462 8.52575 14.425L4.81171 11.6092C4.24992 11.1833 3.96902 10.9703 3.93414 10.7791C3.90396 10.6135 3.95907 10.4439 4.0808 10.3277C4.22145 10.1934 4.57388 10.1863 5.27873 10.1719L9.93853 10.0769C10.1391 10.0729 10.2394 10.0708 10.3249 10.0362C10.4004 10.0056 10.4673 9.95697 10.5197 9.89463C10.5791 9.82406 10.612 9.7293 10.6779 9.53977L12.2082 5.13738Z" stroke="black" stroke-width="2" stroke-linecap="round" stroke-linejoin="round"/>
</svg>
