<svg width="24" height="24" viewBox="0 0 24 24" fill="none" xmlns="http://www.w3.org/2000/svg">
<path d="M12.0002 3.19336V17.3726M8.73418 8.66905L4.21201 9.20522C3.66374 9.27023 3.38961 9.30273 3.26591 9.4304C3.15841 9.54135 3.10823 9.69578 3.12999 9.84873C3.15502 10.0247 3.35769 10.2122 3.76304 10.587L7.1064 13.6788C7.22635 13.7898 7.28633 13.8452 7.32455 13.9123C7.35837 13.9716 7.37969 14.0372 7.38719 14.105C7.39566 14.1817 7.37974 14.2619 7.3479 14.4221L6.4604 18.8886C6.3528 19.4302 6.299 19.7009 6.3822 19.858C6.4545 19.9945 6.58586 20.09 6.73805 20.1166C6.91317 20.1471 7.15405 20.0123 7.63582 19.7426L11.6095 17.5183C11.7521 17.4385 11.8233 17.3986 11.8989 17.383C11.9657 17.3691 12.0347 17.3691 12.1016 17.383C12.1771 17.3986 12.2484 17.4385 12.391 17.5183L16.3647 19.7426C16.8464 20.0123 17.0873 20.1471 17.2624 20.1166C17.4146 20.09 17.546 19.9945 17.6183 19.858C17.7015 19.7009 17.6477 19.4302 17.5401 18.8886L16.6526 14.4221C16.6207 14.2619 16.6048 14.1817 16.6133 14.105C16.6208 14.0372 16.6421 13.9716 16.6759 13.9123C16.7142 13.8452 16.7741 13.7898 16.8941 13.6788L20.2374 10.587C20.6428 10.2122 20.8455 10.0247 20.8705 9.84873C20.8922 9.69578 20.8421 9.54135 20.7346 9.4304C20.6109 9.30273 20.3367 9.27023 19.7885 9.20522L15.2663 8.66905C15.1041 8.64981 15.0229 8.64019 14.9526 8.60844C14.8904 8.58034 14.8346 8.53979 14.7886 8.48929C14.7367 8.43223 14.7025 8.35805 14.634 8.20969L12.7267 4.07454C12.4954 3.57319 12.3798 3.32252 12.2202 3.24433C12.0814 3.17637 11.9191 3.17637 11.7803 3.24433C11.6207 3.32252 11.505 3.57319 11.2738 4.07454L9.36643 8.20969C9.298 8.35805 9.26378 8.43223 9.21186 8.48929C9.1659 8.53979 9.11009 8.58034 9.04786 8.60844C8.97755 8.64019 8.89643 8.64981 8.73418 8.66905Z" stroke="black" stroke-width="2" stroke-linecap="round" stroke-linejoin="round"/>
</svg>
