<svg width="24" height="24" viewBox="0 0 24 24" fill="none" xmlns="http://www.w3.org/2000/svg">
<path d="M13.9999 7C13.4477 7 12.9999 7.44772 12.9999 8C12.9999 8.55228 13.4477 9 13.9999 9V7ZM14.0099 9C14.5622 9 15.0099 8.55228 15.0099 8C15.0099 7.44772 14.5622 7 14.0099 7V9ZM9.99994 7C9.44765 7 8.99994 7.44772 8.99994 8C8.99994 8.55228 9.44765 9 9.99994 9V7ZM10.0099 9C10.5622 9 11.0099 8.55228 11.0099 8C11.0099 7.44772 10.5622 7 10.0099 7V9ZM15.5474 17.1206L16.4746 17.4951L16.4746 17.4951L15.5474 17.1206ZM18.7902 17.7765L17.824 17.5186L17.824 17.5186L18.7902 17.7765ZM8.45251 17.1206L7.52528 17.4951L7.52528 17.4951L8.45251 17.1206ZM5.20969 17.7765L6.17584 17.5186L6.17584 17.5186L5.20969 17.7765ZM8.50069 11.4289C8.89511 11.0423 8.90147 10.4092 8.51489 10.0148C8.12831 9.62032 7.49517 9.61397 7.10075 10.0006L8.50069 11.4289ZM5.09702 16.1655C5.1884 16.7101 5.70402 17.0776 6.24869 16.9862C6.79336 16.8948 7.16083 16.3792 7.06945 15.8345L5.09702 16.1655ZM7.42218 11.9278C7.92578 11.7011 8.15023 11.1091 7.9235 10.6055C7.69677 10.1019 7.10473 9.87741 6.60113 10.1041L7.42218 11.9278ZM2.04732 16L1.06093 15.8356L1.06093 15.8356L2.04732 16ZM5.75539 18.5915C6.21618 18.287 6.34292 17.6667 6.03847 17.2059C5.73402 16.7451 5.11367 16.6183 4.65287 16.9228L5.75539 18.5915ZM12.1646 11.5067C12.7151 11.5513 13.1976 11.1412 13.2422 10.5908C13.2868 10.0403 12.8768 9.55784 12.3263 9.5132L12.1646 11.5067ZM11.673 9.5132C11.1225 9.55784 10.7125 10.0403 10.7571 10.5908C10.8018 11.1412 11.2842 11.5513 11.8347 11.5067L11.673 9.5132ZM16.8991 10.0006C16.5047 9.61397 15.8716 9.62032 15.485 10.0148C15.0984 10.4092 15.1048 11.0423 15.4992 11.4289L16.8991 10.0006ZM16.9304 15.8345C16.839 16.3792 17.2065 16.8948 17.7512 16.9862C18.2959 17.0776 18.8115 16.7101 18.9029 16.1655L16.9304 15.8345ZM17.4202 10.1041C16.9166 9.87741 16.3246 10.1019 16.0979 10.6055C15.8711 11.1091 16.0956 11.7011 16.5992 11.9278L17.4202 10.1041ZM21.974 16L20.9876 16.1644L20.9876 16.1644L21.974 16ZM19.3564 16.9148C18.8979 16.6069 18.2766 16.729 17.9687 17.1875C17.6608 17.646 17.783 18.2673 18.2415 18.5751L19.3564 16.9148ZM13.9999 9H14.0099V7H13.9999V9ZM9.99994 9H10.0099V7H9.99994V9ZM6.99994 6C6.44765 6 5.99994 5.55228 5.99994 5H3.99994C3.99994 6.65685 5.34308 8 6.99994 8V6ZM5.99994 5C5.99994 4.44772 6.44765 4 6.99994 4V2C5.34308 2 3.99994 3.34315 3.99994 5H5.99994ZM6.99994 4C7.39859 4 7.74478 4.23325 7.9057 4.57511L9.71524 3.7233C9.2368 2.70692 8.20193 2 6.99994 2V4ZM17.9999 5C17.9999 5.55228 17.5522 6 16.9999 6V8C18.6568 8 19.9999 6.65685 19.9999 5H17.9999ZM16.9999 4C17.5522 4 17.9999 4.44772 17.9999 5H19.9999C19.9999 3.34315 18.6568 2 16.9999 2V4ZM16.0942 4.57511C16.2551 4.23325 16.6013 4 16.9999 4V2C15.7979 2 14.7631 2.70692 14.2846 3.7233L16.0942 4.57511ZM16.9999 6C16.9827 6 16.9657 5.99957 16.9488 5.99874L16.85 7.99629C16.8997 7.99876 16.9497 8 16.9999 8V6ZM14.6201 16.7461L13.0727 20.5775L14.9272 21.3265L16.4746 17.4951L14.6201 16.7461ZM11.9999 22C12.6321 22 13.3497 22.0004 14.0703 21.9495L13.9295 19.9545C13.2905 19.9996 12.6428 20 11.9999 20V22ZM14.0703 21.9495C15.1644 21.8723 16.3711 21.6721 17.4158 21.0964C18.5033 20.4971 19.3595 19.5206 19.7563 18.0345L17.824 17.5186C17.5719 18.463 17.0749 19.0007 16.4505 19.3448C15.7833 19.7124 14.9193 19.8846 13.9295 19.9545L14.0703 21.9495ZM17.2085 15C16.0704 15 15.0463 15.6909 14.6201 16.7461L16.4746 17.4951C16.5954 17.1959 16.8858 17 17.2085 17V15ZM17.2085 17C17.4335 17 17.626 17.0956 17.7358 17.2129C17.8323 17.3161 17.8524 17.4125 17.824 17.5186L19.7563 18.0345C19.9833 17.1847 19.7072 16.3928 19.1964 15.8467C18.6988 15.3147 17.9728 15 17.2085 15V17ZM7.52528 17.4951L9.0727 21.3265L10.9272 20.5775L9.37975 16.7461L7.52528 17.4951ZM11.9999 20C11.3571 20 10.7093 19.9996 10.0703 19.9545L9.92954 21.9495C10.6502 22.0004 11.3678 22 11.9999 22V20ZM10.0703 19.9545C9.08053 19.8846 8.21659 19.7124 7.54935 19.3448C6.925 19.0007 6.42802 18.463 6.17584 17.5186L4.24354 18.0345C4.64036 19.5206 5.49655 20.4971 6.58411 21.0964C7.62878 21.6721 8.83546 21.8723 9.92954 21.9495L10.0703 19.9545ZM9.37975 16.7461C8.95356 15.6909 7.92946 15 6.79141 15V17C7.11408 17 7.40445 17.1959 7.52528 17.4951L9.37975 16.7461ZM6.17584 17.5186C6.14751 17.4125 6.1676 17.3161 6.26412 17.2129C6.37385 17.0956 6.56634 17 6.79141 17V15C6.02707 15 5.30108 15.3147 4.80348 15.8467C4.29268 16.3928 4.01662 17.1847 4.24354 18.0345L6.17584 17.5186ZM7.00028 15C7.00028 13.6009 7.57361 12.3375 8.50069 11.4289L7.10075 10.0006C5.80568 11.2699 5.00028 13.0418 5.00028 15H7.00028ZM7.06945 15.8345C7.02403 15.5638 7.00028 15.2851 7.00028 15H5.00028C5.00028 15.3964 5.03332 15.7858 5.09702 16.1655L7.06945 15.8345ZM6.60113 10.1041C5.77263 10.4771 4.54556 11.1765 3.45841 12.1128C2.39476 13.0288 1.31711 14.2986 1.06093 15.8356L3.03372 16.1644C3.1744 15.3204 3.82245 14.4387 4.76353 13.6283C5.68111 12.838 6.73778 12.236 7.42218 11.9278L6.60113 10.1041ZM1.06093 15.8356C0.828606 17.2296 1.40435 18.3835 2.48864 18.9128C3.4971 19.4052 4.74654 19.258 5.75539 18.5915L4.65287 16.9228C4.1361 17.2642 3.63878 17.2487 3.36605 17.1156C3.237 17.0526 3.14501 16.9609 3.0869 16.8389C3.02782 16.7147 2.97745 16.502 3.03372 16.1644L1.06093 15.8356ZM7.99994 8C7.99994 5.79086 9.7908 4 11.9999 4V2C8.68623 2 5.99994 4.68629 5.99994 8H7.99994ZM11.9999 4C14.2091 4 15.9999 5.79086 15.9999 8H17.9999C17.9999 4.68629 15.3136 2 11.9999 2V4ZM11.9999 12C9.7908 12 7.99994 10.2091 7.99994 8H5.99994C5.99994 11.3137 8.68623 14 11.9999 14V12ZM15.9999 8C15.9999 10.2091 14.2091 12 11.9999 12V14C15.3136 14 17.9999 11.3137 17.9999 8H15.9999ZM11.9997 11.5C12.0554 11.5 12.1104 11.5023 12.1646 11.5067L12.3263 9.5132C12.2184 9.50445 12.1094 9.5 11.9997 9.5V11.5ZM11.8347 11.5067C11.8889 11.5023 11.9439 11.5 11.9997 11.5V9.5C11.8899 9.5 11.7809 9.50445 11.673 9.5132L11.8347 11.5067ZM10.9997 10.5001L10.9999 13.0001L12.9999 12.9999L12.9997 10.4999L10.9997 10.5001ZM15.4992 11.4289C16.4263 12.3375 16.9996 13.6009 16.9996 15H18.9996C18.9996 13.0418 18.1942 11.2699 16.8991 10.0006L15.4992 11.4289ZM16.9996 15C16.9996 15.2851 16.9758 15.5638 16.9304 15.8345L18.9029 16.1655C18.9665 15.7858 18.9996 15.3964 18.9996 15H16.9996ZM16.5992 11.9278C17.2836 12.236 18.3402 12.838 19.2578 13.6283C20.1989 14.4387 20.847 15.3204 20.9876 16.1644L22.9604 15.8356C22.7043 14.2986 21.6266 13.0288 20.5629 12.1128C19.4758 11.1765 18.2487 10.4771 17.4202 10.1041L16.5992 11.9278ZM20.9876 16.1644C21.0441 16.5033 20.9932 16.7164 20.9337 16.8404C20.8752 16.9625 20.7825 17.0543 20.6521 17.1172C20.3764 17.25 19.8747 17.2628 19.3564 16.9148L18.2415 18.5751C19.2513 19.2532 20.5061 19.4078 21.5205 18.9187C22.6117 18.3927 23.1938 17.2358 22.9604 15.8356L20.9876 16.1644Z" fill="black"/>
</svg>
