<svg width="24" height="24" viewBox="0 0 24 24" fill="none" xmlns="http://www.w3.org/2000/svg">
<path d="M14.4982 4.99998L15.4645 7.06466C15.5742 7.29392 15.629 7.40855 15.7154 7.4792C15.7915 7.54144 15.8842 7.57986 15.9821 7.58966C16.0931 7.60079 16.2129 7.5585 16.4526 7.47391L18.0783 6.90001C18.583 6.72187 18.8353 6.6328 19.001 6.69055C19.145 6.74078 19.2582 6.85401 19.3085 6.99805C19.3662 7.16369 19.2772 7.41602 19.099 7.92068L18.5251 9.54646C18.4405 9.7861 18.3982 9.90591 18.4094 10.017C18.4192 10.1148 18.4576 10.2075 18.5198 10.2836C18.5905 10.37 18.7051 10.4248 18.9344 10.5345L20.4898 11.2783C20.9726 11.5092 21.214 11.6246 21.2903 11.7826C21.3566 11.9199 21.3566 12.0801 21.2903 12.2174C21.214 12.3754 20.9726 12.4908 20.4898 12.7217L18.9344 13.4655C18.7051 13.5751 18.5905 13.63 18.5198 13.7164C18.4576 13.7925 18.4192 13.8852 18.4094 13.983C18.3982 14.0941 18.4405 14.2139 18.5251 14.4535L19.099 16.0793C19.2772 16.584 19.3662 16.8363 19.3085 17.0019C19.2582 17.146 19.145 17.2592 19.001 17.3094C18.8353 17.3672 18.583 17.2781 18.0783 17.1L16.0181 16.3727C15.9277 16.3408 15.8825 16.3249 15.8361 16.3178C15.7949 16.3114 15.7531 16.3103 15.7116 16.3144C15.6649 16.3189 15.6189 16.3324 15.5269 16.3594L14.9982 16.5142M13.999 14C14.363 14 14.7042 13.9028 14.9982 13.7329C15.5965 13.3872 15.999 12.7406 15.999 12C15.999 11.2594 15.5965 10.6128 14.9982 10.2671C14.7042 10.0972 14.363 10 13.999 10M6.99902 15.9998C7.55131 15.9998 7.99902 16.4475 7.99902 16.9998C7.99902 17.5521 7.55131 17.9998 6.99902 17.9998C6.44674 17.9998 5.99902 17.5521 5.99902 16.9998C5.99902 16.4475 6.44674 15.9998 6.99902 15.9998ZM6.99902 15.9998L6.99195 10.5M6.99902 16.9998L6.99195 17.0069M2.99902 16.9998C2.99902 19.209 4.78988 20.9998 6.99902 20.9998C9.20816 20.9998 10.999 19.209 10.999 16.9998C10.999 15.9854 10.6214 15.0591 9.99902 14.354V6C9.99902 4.34315 8.65588 3 6.99902 3C5.34217 3 3.99902 4.34315 3.99902 6V14.354C3.37666 15.0591 2.99902 15.9854 2.99902 16.9998Z" stroke="black" stroke-width="2" stroke-linecap="round" stroke-linejoin="round"/>
</svg>
