<svg width="24" height="24" viewBox="0 0 24 24" fill="none" xmlns="http://www.w3.org/2000/svg">
<path d="M7 17.0003H8.34903C9.3274 17.0003 9.81658 17.0003 10.2769 16.8898C10.6851 16.7918 11.0753 16.6302 11.4331 16.4109C11.8368 16.1635 12.1827 15.8176 12.8745 15.1258L20 8.0003C21.1046 6.89573 21.1046 5.10487 20 4.0003C18.8954 2.89573 17.1046 2.89573 16 4.0003L8.87452 11.1258C8.18271 11.8176 7.83681 12.1635 7.58944 12.5672C7.37012 12.9251 7.20851 13.3152 7.11052 13.7234C7 14.1837 7 14.6729 7 15.6513V17.0003ZM7 17.0003L3 21.0003M9.5 10.5003L11 12.0003M12 8.0003L13.5 9.5003M14.5 5.5003L16 7.0003" stroke="black" stroke-width="2" stroke-linecap="round" stroke-linejoin="round"/>
</svg>
