<svg width="24" height="24" viewBox="0 0 24 24" fill="none" xmlns="http://www.w3.org/2000/svg">
<path d="M15.0001 17.0003V21.0003H9.0001V17.0003M19.2784 17.0003H4.72182C4.17319 17.0003 3.89888 17.0003 3.76119 16.8886C3.64151 16.7915 3.57328 16.6447 3.57627 16.4906C3.5797 16.3134 3.75659 16.1037 4.11038 15.6844L6.13538 13.2844C6.22352 13.1799 6.26759 13.1277 6.32141 13.0902C6.36911 13.0569 6.42223 13.0322 6.47841 13.0172C6.5418 13.0003 6.61014 13.0003 6.74682 13.0003H17.2534C17.3901 13.0003 17.4584 13.0003 17.5218 13.0172C17.578 13.0322 17.6311 13.0569 17.6788 13.0902C17.7326 13.1277 17.7767 13.1799 17.8648 13.2844L19.8898 15.6844C20.2436 16.1037 20.4205 16.3134 20.4239 16.4906C20.4269 16.6447 20.3587 16.7915 20.239 16.8886C20.1013 17.0003 19.827 17.0003 19.2784 17.0003ZM5.60245 11.5982L8.34531 9.19824C8.42902 9.125 8.47087 9.08838 8.51829 9.06228C8.56034 9.03913 8.60551 9.02216 8.6524 9.01189C8.70527 9.0003 8.76088 9.00031 8.87211 9.00031H15.1281C15.2393 9.00031 15.2949 9.0003 15.3478 9.01189C15.3947 9.02216 15.4399 9.03913 15.4819 9.06228C15.5293 9.08838 15.5712 9.125 15.6549 9.19824L18.3977 11.5982C18.8937 12.0322 19.1417 12.2492 19.1655 12.4379C19.186 12.6014 19.1247 12.7645 19.0016 12.8739C18.8595 13.0003 18.53 13.0003 17.8709 13.0003H6.12926C5.4702 13.0003 5.14067 13.0003 4.99857 12.8739C4.87545 12.7645 4.81417 12.6014 4.83473 12.4379C4.85846 12.2492 5.10646 12.0322 5.60245 11.5982ZM13.0414 3.89282L17.3581 7.5929C17.8653 8.02763 18.1189 8.245 18.1441 8.43436C18.1659 8.59839 18.1052 8.76259 17.9819 8.87293C17.8395 9.00031 17.5055 9.00031 16.8375 9.00031H7.1627C6.4947 9.00031 6.1607 9.00031 6.01833 8.87293C5.89501 8.76259 5.83427 8.59839 5.85609 8.43436C5.88129 8.245 6.13488 8.02763 6.64207 7.5929L10.9588 3.89282C11.3284 3.57604 11.5132 3.41765 11.7204 3.35729C11.9031 3.30408 12.0971 3.30408 12.2798 3.35729C12.487 3.41765 12.6718 3.57604 13.0414 3.89282Z" stroke="black" stroke-width="2" stroke-linejoin="round"/>
</svg>
