<svg width="24" height="24" viewBox="0 0 24 24" fill="none" xmlns="http://www.w3.org/2000/svg">
<path d="M12.0001 17.0001H12.0101M12.0001 10.0001V14.0001M6.41221 21.0001H17.5881C19.3697 21.0001 20.2606 21.0001 20.7831 20.6254C21.239 20.2985 21.5367 19.7951 21.6034 19.238C21.6799 18.5996 21.2506 17.819 20.392 16.2579L14.804 6.09805C13.8899 4.4359 13.4328 3.60482 12.8288 3.32987C12.3023 3.09024 11.698 3.09024 11.1715 3.32987C10.5675 3.60482 10.1104 4.4359 9.19626 6.09805L3.60832 16.2579C2.74971 17.819 2.3204 18.5996 2.39689 19.238C2.46364 19.7951 2.76128 20.2985 3.21722 20.6254C3.73973 21.0001 4.63056 21.0001 6.41221 21.0001Z" stroke="black" stroke-width="2" stroke-linecap="round" stroke-linejoin="round"/>
</svg>
