<svg width="24" height="24" viewBox="0 0 24 24" fill="none" xmlns="http://www.w3.org/2000/svg">
<path d="M4.2433 17.6518L10.5859 5.67143C11.0445 4.80505 11.2739 4.37185 11.5798 4.23022C11.8463 4.10685 12.1535 4.10685 12.42 4.23022C12.726 4.37185 12.9553 4.80504 13.414 5.67143L19.7565 17.6518C20.1668 18.4268 20.372 18.8143 20.3305 19.1305C20.2943 19.4064 20.1448 19.6548 19.9179 19.8159C19.6579 20.0004 19.2194 20.0004 18.3425 20.0004H5.65737C4.78044 20.0004 4.34198 20.0004 4.08198 19.8159C3.85505 19.6548 3.70551 19.4064 3.66932 19.1305C3.62785 18.8143 3.833 18.4268 4.2433 17.6518Z" stroke="black" stroke-width="2" stroke-linecap="round" stroke-linejoin="round"/>
</svg>
