<svg width="25" height="25" viewBox="0 0 25 25" fill="none" xmlns="http://www.w3.org/2000/svg">
<path d="M14.4642 14.4639L17.0383 11.8898M20.9642 7.96387L17.0383 11.8898M19.0761 15.3541L21.1912 18.9498C21.9755 20.2831 21.0142 21.9639 19.4674 21.9639H6.46104C4.91421 21.9639 3.9529 20.2831 4.73717 18.9498L11.2403 7.89444C12.0136 6.57983 13.9148 6.57983 14.6881 7.89444L17.0383 11.8898M12.9642 6.90848V3.96387M14.9642 15.9639C14.9642 17.0684 14.0688 17.9639 12.9642 17.9639C11.8596 17.9639 10.9642 17.0684 10.9642 15.9639C10.9642 14.8593 11.8596 13.9639 12.9642 13.9639C14.0688 13.9639 14.9642 14.8593 14.9642 15.9639Z" stroke="black" stroke-width="2" stroke-linecap="round" stroke-linejoin="round"/>
</svg>
