<svg width="25" height="25" viewBox="0 0 25 25" fill="none" xmlns="http://www.w3.org/2000/svg">
<path d="M10.4639 9.96387V15.9639M7.46387 12.9639H13.4639M16.9639 10.9639L19.5407 9.41778C20.3338 8.9419 20.7304 8.70396 21.0567 8.73437C21.3412 8.7609 21.6008 8.90787 21.7699 9.1382C21.9639 9.40235 21.9639 9.86482 21.9639 10.7898V15.138C21.9639 16.0629 21.9639 16.5254 21.7699 16.7895C21.6008 17.0199 21.3412 17.1668 21.0567 17.1934C20.7304 17.2238 20.3338 16.9858 19.5407 16.51L16.9639 14.9639M7.16387 18.9639H13.7639C14.884 18.9639 15.444 18.9639 15.8718 18.7459C16.2482 18.5541 16.5541 18.2482 16.7459 17.8718C16.9639 17.444 16.9639 16.884 16.9639 15.7639V10.1639C16.9639 9.04376 16.9639 8.48371 16.7459 8.05589C16.5541 7.67956 16.2482 7.3736 15.8718 7.18185C15.444 6.96387 14.884 6.96387 13.7639 6.96387H7.16387C6.04376 6.96387 5.48371 6.96387 5.05589 7.18185C4.67956 7.3736 4.3736 7.67956 4.18185 8.05589C3.96387 8.48371 3.96387 9.04376 3.96387 10.1639V15.7639C3.96387 16.884 3.96387 17.444 4.18185 17.8718C4.3736 18.2482 4.67956 18.5541 5.05589 18.7459C5.48371 18.9639 6.04376 18.9639 7.16387 18.9639Z" stroke="black" stroke-width="2" stroke-linecap="round" stroke-linejoin="round"/>
</svg>
